<?xml version="1.0" encoding="UTF-8"?>
<svg width="549px" height="164px" viewBox="0 0 549 164" version="1.1" xmlns="http://www.w3.org/2000/svg" xmlns:xlink="http://www.w3.org/1999/xlink">
    <!-- Generator: Sketch 44.1 (41455) - http://www.bohemiancoding.com/sketch -->
    <title>Artboard</title>
    <desc>Created with Sketch.</desc>
    <defs>
        <path d="M0.182143094,80.5965686 C0.353989599,36.1318422 36.4722905,0.139607789 81.0025488,0.139607789 C125.637548,0.139607789 161.821889,36.3040488 161.821889,80.9151153 C161.821889,86.6680901 161.220427,92.2800397 160.07573,97.693562 C110.199057,80.4817642 53.332776,79.7351814 1.92617209,97.6864753 C0.804199039,92.3764187 0.204156489,86.8728954 0.182143094,81.2340163 L0.182143094,80.5965686 Z M64.5819761,31.5499429 L49.552863,72.8129029 C54.7103885,72.0578161 59.8664938,71.4908809 65.022244,71.1089083 L77.7399506,36.1892444 L77.7949841,36.0779834 C78.3726582,34.3931229 79.12999,33.2865362 79.9334789,32.7298768 C80.2707809,32.4953073 80.5999167,32.3808573 80.8860908,32.389007 C81.2067053,32.3960937 81.5954903,32.5587332 82.0187155,32.8737366 C83.033107,33.6288234 83.9740021,35.0794688 84.6624533,37.2855553 L84.7725203,37.5853223 L96.9949255,71.1432787 C102.153871,71.535527 107.313527,72.1109662 112.471052,72.8727854 L97.9954698,33.1256684 C96.3725145,27.9431722 93.6020221,24.1174227 90.3259318,21.6767667 C87.5479834,19.608162 84.4071689,18.5394891 81.2152266,18.4608269 C77.9902642,18.3800386 74.8167847,19.3186707 72.0083015,21.2590063 C68.828076,23.4580062 66.1601945,26.9092241 64.568129,31.5463996 L64.5819761,31.5499429 Z M54.6727527,99.520865 C63.3435451,98.4674285 72.0118521,97.9419505 80.6826445,97.9423048 C89.5725056,97.9423048 98.4652072,98.494358 107.356134,99.5945666 L125.188759,148.555798 C112.573663,156.805059 97.5093998,161.628969 81.3245835,161.692394 L80.6808692,161.692394 C64.4942776,161.628969 49.4314343,156.803642 36.8163385,148.555798 L54.6727527,99.520865 Z M5.98693342,111.027878 C16.9620312,107.169175 27.9385492,104.166899 38.9171976,102.01786 L25.2894856,139.432748 C16.9723278,131.520458 10.34097,121.854922 5.98693342,111.027878 Z M136.713837,139.432748 L123.12234,102.117074 C134.081816,104.271427 145.043066,107.256341 156.004317,111.061894 C151.650636,121.875119 145.022473,131.528962 136.713837,139.432748 Z" id="path-1"></path>
        <path d="M9.64621767,0.634967405 C8.35685603,1.39572355 7.97294101,3.24995593 7.15465155,4.60209635 C6.36847264,5.90144092 6.56995745,6.234161 8.08903296,6.23841302 C11.7757463,6.25010605 15.4631653,6.2423107 19.1498787,6.2423107 L32.1345338,6.2423107 C32.211458,6.35924108 32.288735,6.47581712 32.3653063,6.59203884 C32.036085,6.84184465 31.6867506,7.07003606 31.379054,7.34499963 C23.851779,14.0684966 15.8414345,20.1428527 7.24286732,25.4220823 C6.53643546,25.8557877 6.18427812,26.3164225 6.22662169,27.1590299 C6.28166833,28.2755379 6.27461106,29.3980696 6.22979746,30.5156405 C6.19098252,31.475887 6.60983098,31.8203001 7.53397935,31.78841 C8.10702897,31.7685673 8.68149005,31.774591 9.25559826,31.7806147 C9.92533236,31.7877014 10.5947136,31.7951424 11.2623305,31.7604176 C12.0220447,31.7217951 12.1727172,31.9988847 12.1663657,32.706845 C12.1342552,36.1527479 11.8650206,39.5759734 11.4006528,42.9910492 C10.1042339,52.532214 6.88612276,61.2722285 0.786531777,68.8191988 C0.476012278,69.2032974 0.292876346,69.5902307 0.30028647,70.100118 C0.322163981,71.6921429 0.313695267,73.2845221 0.304167964,74.8772556 C0.302050786,75.2836772 0.329574105,75.6826579 0.728309371,75.8796679 C1.16550671,76.0961662 1.43615268,75.7453751 1.72020745,75.4909629 C9.19137718,68.8011278 14.3414136,60.6556865 17.0274073,50.9543626 C18.6650448,45.0380396 19.3813568,38.9966365 19.4663968,32.8747996 C19.4794528,31.9577819 19.7575089,31.7221495 20.6393137,31.7568743 C22.437151,31.8270325 24.2416927,31.8284498 26.0395301,31.7568743 C26.9590912,31.7200235 27.1665747,32.0080974 27.1492844,32.9109417 C27.0670673,37.2168144 26.7501963,41.4985924 26.0310613,45.7452912 C24.7575785,53.2731274 22.5239553,60.5075747 17.9314425,66.6542151 C15.8184984,69.4818043 14.8689439,72.247385 15.2817937,75.6273817 C15.2874395,75.6695475 15.283558,75.7138393 15.2824994,75.7567138 C15.2712078,76.2318763 15.1953423,76.8186543 15.6491242,77.0489717 C16.1942976,77.3260612 16.5835056,76.8016462 16.9624805,76.4699891 C23.9089429,70.3853573 28.67083,62.8773638 31.4319835,54.0678997 C33.5696279,47.2480238 34.4369653,40.2336182 34.4747217,33.1132667 C34.4807204,31.9173878 34.8349949,31.6831727 35.9016999,31.7565199 C37.2249364,31.8465209 38.5636989,31.8475839 39.8862297,31.7551026 C40.9098854,31.683527 41.1487737,32.0279401 41.1445394,33.0275177 C41.106783,42.711125 41.1205447,52.3954409 41.1240733,62.0794025 C41.1244262,63.2402023 41.1678283,64.3992304 40.9638735,65.5536522 C40.6074818,67.5701698 39.2948312,68.9332945 37.3004491,69.3769213 C36.1981049,69.6217664 35.087292,69.572514 33.9743619,69.5976717 C33.5057597,69.6086561 33.0110457,69.5597579 32.5170374,69.5112141 C31.4351592,69.4052681 30.3564568,69.2986134 29.5632207,69.8138157 C28.4227672,70.5543748 27.8835925,72.2286053 27.0815347,73.4935794 C27.0356625,73.5658636 27.0039048,73.6477149 26.954504,73.7178731 C26.366987,74.5477245 26.6125797,75.0469818 27.5907161,75.0363518 C29.0843855,75.0204067 30.5787606,75.0654072 32.0731356,75.1100533 C34.6500946,75.1872983 37.2263479,75.2645432 39.7976611,75.0296194 C44.2504401,74.6231978 47.22437,72.0464774 48.3104826,67.8408813 C48.6679328,66.4593311 48.7522671,65.0469539 48.7508557,63.6232379 C48.7466213,51.6151964 48.7480328,39.6075092 48.7469742,27.598759 C48.7469742,25.8196456 48.744857,25.8164565 46.9826588,25.8164565 C37.7655227,25.8150392 28.5487393,25.8175196 19.3316031,25.8093699 C19.2416231,25.8093699 19.1505844,25.8146849 19.0574285,25.8196456 C18.7042126,25.8387796 18.3241791,25.858268 17.9092121,25.5928715 C26.3204091,20.6786065 34.0078838,14.9801992 41.3386141,8.77438496 C44.5362592,6.06833246 44.5810728,6.12148264 44.5775442,1.96088706 C44.5761327,0.31571203 44.5761327,0.310042678 42.8605125,0.314649026 C33.3434427,0.338389437 23.8274315,0.354688824 14.3107146,0.401815311 C13.845641,0.404295652 13.3601015,0.358940838 12.8745619,0.313586023 C12.4013725,0.269648546 11.9271245,0.225356735 11.469814,0.22571107 C10.8092543,0.22571107 10.1836281,0.317483702 9.64621767,0.634967405 Z" id="path-3"></path>
        <path d="M36.141294,0.257601174 L2.30984164,0.257601174 C0.214187882,0.257601174 0.213482156,0.258309843 0.213482156,2.30069384 C0.213129293,26.4935898 0.213129293,50.6871943 0.213129293,74.8804446 C0.213129293,75.1387544 0.228302405,75.3981273 0.211012114,75.6546655 C0.14608531,76.6081796 0.615040327,76.9589707 1.52683849,76.94338 C2.72092711,76.9235373 3.9153686,76.9277893 5.10945722,76.9320413 C5.6302831,76.9334586 6.15110899,76.9355846 6.67193488,76.9352303 C8.64408656,76.934876 8.64549801,76.9341673 8.64549801,74.9045393 C8.64549801,52.5623325 8.65361387,33.2085827 8.64549801,10.8667301 C8.64514515,10.1052653 8.26617022,8.5118231 9.43238266,8.51501211 C27.1842179,8.56072126 45.4452345,8.54016986 63.1963639,8.51501211 C64.0390009,8.51359477 64.0143005,10.0262487 64.0135948,10.8667301 C63.9920701,30.1949678 64.0044203,46.2966357 63.9984217,65.6252277 C63.9980688,68.6005744 62.4447656,70.1663786 59.5149435,70.2461038 C56.7724918,70.3205141 54.0307457,70.4264601 51.2879411,70.4672085 C50.6175013,70.4771299 50.1707767,70.6915023 49.7840387,71.2279647 C48.806608,72.5861288 47.7854223,73.9127571 46.7917599,75.2595825 C46.5740434,75.5540345 46.1753081,75.813053 46.3990233,76.2598688 C46.6301486,76.7208579 47.0842834,76.6999522 47.5221865,76.6964089 C52.4516835,76.6592037 57.3854149,76.7332596 62.3078547,76.4409337 C67.2369989,76.1482534 70.5334457,73.3103885 71.6400243,68.5187232 C71.9413693,67.2144179 72.0154706,65.8853093 72.014412,64.5469879 C72.0105305,43.6685368 72.0122948,22.7900857 72.0112362,1.91163457 C72.0112362,0.272128888 71.9967688,0.258664177 70.3584256,0.258309843 C64.6554527,0.257601174 58.9524798,0.257601174 53.2495069,0.257601174 L36.141294,0.257601174 Z" id="path-5"></path>
        <path d="M16.6816015,1.22174532 C16.6664284,0.364610189 16.9151969,0.00921269672 17.7772413,0.00921269672 C17.8008832,0.00921269672 17.8252307,0.00956703121 17.8499311,0.0099213657 C20.1640071,0.0612998666 22.4805532,0.0598825287 24.7946292,0.0106300347 C25.7025458,-0.00850402774 26.0084781,0.313231688 25.9696632,1.21076095 C25.8570999,3.83283617 25.8214607,6.45845473 25.7120731,9.08123862 C25.681374,9.80266364 25.7660612,10.126171 26.6386915,10.1233364 C36.92712,10.0882572 47.2162542,10.0910919 57.5050355,10.1190843 C58.2830986,10.1212103 58.3981319,9.84376644 58.3889575,9.16131822 C58.354024,6.49317951 58.3967205,3.82468648 58.361787,1.15654777 C58.3504954,0.332365751 58.6080855,-0.00248034142 59.4644841,0.0131103761 C61.7358637,0.0545675113 64.0090076,0.0535045079 66.2803871,0.0138190451 C67.1254942,-0.00106300347 67.4229577,0.309688344 67.38873,1.14662641 C67.2839297,3.72582715 67.2811068,6.31105159 67.123377,8.88670899 C67.0588031,9.95077546 67.419782,10.1329034 68.3816867,10.125108 C72.5821687,10.0886116 76.7833563,10.1318404 80.984544,10.1484941 C82.6048912,10.1552265 82.644059,10.1959749 82.6504106,11.8159922 C82.6546449,12.8917517 82.5883067,13.9721176 82.6684066,15.0429164 C82.7530937,16.1902515 82.2664955,16.5474206 81.1839116,16.5417513 C79.4697029,16.5328929 77.7554941,16.5399796 76.0412853,16.5474206 C73.4258642,16.5580507 70.8097375,16.5693894 68.1957279,16.5219086 C67.0648017,16.5010028 66.785687,16.865613 66.6897083,17.8970807 C65.8629501,26.7866244 61.8837133,34.0692611 55.3712725,40.0369626 C53.5067441,41.7459178 51.4767229,43.2454614 49.2568613,44.8250846 C52.4276888,45.8285598 55.4901874,46.593568 58.5696234,47.2877093 C66.035853,48.9711524 72.4551379,50.2276225 80.0247565,51.3487368 C80.9919541,51.491888 81.3783392,51.6251177 82.0583063,52.3702832 C83.2739196,53.7008092 84.5283478,55.1798013 85.7993606,56.4596575 C86.0375431,56.6991876 86.0050797,56.7608418 86.3741745,57.2246657 C86.7436221,57.6891982 86.9959192,57.934752 86.5756593,57.8645938 C79.366314,56.6548958 72.2843522,55.473899 65.09265,54.165696 C57.320841,52.7515471 49.5603235,51.2498775 42.0041138,48.8737104 C41.4854051,48.7103622 41.0062171,48.7971742 40.5026815,48.956979 C30.0469959,52.2622111 19.3432476,54.4523526 8.52270167,56.1148901 C7.21181537,56.3165064 5.90339912,56.5305244 4.59851149,56.7608418 C4.18636743,56.8334804 3.8006881,56.8196613 3.56497557,56.4596575 C3.29185956,56.0422515 3.63484246,55.7449648 3.87337789,55.4480325 C3.92736594,55.3814177 4.00464295,55.3293305 4.04416362,55.2556289 C5.88505024,51.8114977 9.02764872,50.9997174 12.6159132,50.4806173 C19.6061306,49.469701 26.3161747,47.2437718 33.133842,44.8495336 C30.5688804,43.1430587 28.2311626,41.2859917 26.1213943,39.1355357 C21.0355789,33.9509134 18.3400579,27.6274601 17.2130133,20.541479 C17.0510491,19.5238304 16.8792048,18.5015754 16.8255696,17.4754227 C16.7832261,16.6735637 16.4501233,16.5360819 15.7172267,16.540334 C11.0880162,16.5665547 6.45845272,16.541397 1.82818355,16.5272236 C0.170432862,16.5222629 0.0582224061,16.4078129 0.0511651448,14.7977169 C0.0458721988,13.7651862 0.099507385,12.7287579 0.0370506221,11.7001248 C-0.0349334437,10.5184193 0.477070867,10.126171 1.61575999,10.1325491 C6.07383198,10.1559351 10.5326097,10.1169583 14.9903288,10.1034936 C16.6967746,10.0985329 16.6967746,10.101722 16.6967746,8.45158624 C16.6967746,6.04175738 16.7253565,3.63086551 16.6816015,1.22174532 Z M40.426463,41.0230755 C40.8026151,41.2721726 41.1286605,41.382725 41.4543532,41.382725 C41.7839273,41.382725 42.1131485,41.2696923 42.4942406,41.0730366 C52.4043999,35.9624703 56.4072785,27.0513122 58.191707,16.5587593 L57.5343231,16.5587593 L26.3006487,16.5587593 C26.1291573,16.5587593 25.957313,16.5704524 25.7868801,16.557342 C25.3475656,16.5226172 25.1954816,16.6912804 25.2399423,17.1512066 C25.6542036,21.450347 26.4477926,25.6424783 28.5935529,29.4650388 C31.4101059,34.4827695 35.7439701,37.924066 40.426463,41.0230755 Z" id="path-7"></path>
        <path d="M18.071882,0.142796799 C18.1364559,0.138544785 18.1985598,0.136418778 18.2578408,0.136418778 C19.2885539,0.136418778 19.5337937,0.769968845 19.5143862,1.79045217 C19.460751,4.58650563 19.5323822,8.51430344 19.4713369,11.3103569 C19.4501651,12.2794617 19.6558843,12.6291899 20.7091806,12.6040321 C22.4353867,12.5618663 24.1626514,12.5675357 25.8899161,12.5724963 C27.3348904,12.5771027 28.7802175,12.5813547 30.2251918,12.5579686 C31.337769,12.5398976 31.7322699,12.9250592 31.7308585,14.0536145 C31.7061581,28.514005 31.7209783,42.9751042 31.7065109,57.4354947 C31.7058052,58.5505853 31.5074962,59.665676 31.4951459,60.7814753 C31.4852658,61.6357757 31.1313441,61.8827469 30.3208177,61.8770775 C28.897368,61.8675105 27.4735656,61.8745972 26.050116,61.8816839 C24.258983,61.8901879 22.4671444,61.8990463 20.6763643,61.8742428 C19.7437472,61.8614868 19.4568695,62.0765678 19.466044,63.0729564 C19.5210906,68.9258535 19.4671026,74.7794593 19.5143862,80.6323564 C19.5242664,81.848078 19.1805778,82.3654063 17.9078007,82.2704447 C16.6283192,82.1761917 15.3333117,82.1889478 14.0520659,82.2672557 C12.8456271,82.3420203 12.5033499,81.835322 12.5114658,80.6819632 C12.5527508,75.0012727 12.5301675,69.3202278 12.5301675,63.6391829 C12.5301675,61.9110936 12.5301675,61.9110936 10.8727697,61.9110936 C7.91507147,61.9110936 4.95525606,61.8540458 2.00002787,61.938023 C0.727956508,61.9734565 0.294287798,61.6290434 0.30487369,60.2868243 C0.365566138,52.626467 0.334867051,44.9650467 0.334867051,37.3046894 C0.334867051,29.6439777 0.333808462,21.9829117 0.335219914,14.3218457 C0.335219914,12.6199772 0.377916345,12.577457 2.05648596,12.5767484 C5.18567564,12.574268 8.31592391,12.5377716 11.4444079,12.5994258 C12.374202,12.6174968 12.5682767,12.3209189 12.5509864,11.445004 C12.4952341,8.60572174 12.5665124,4.6293801 12.5114658,1.79045217 C12.490294,0.701936623 12.789169,0.0737015738 13.9589101,0.142796799 C15.3259016,0.222167725 16.7059491,0.232443425 18.071882,0.142796799 Z M9.5160112,18.1323588 C9.08269536,18.1713356 8.64867378,18.2103124 8.24676275,18.2103124 C8.21324076,18.2103124 8.17971877,18.2099581 8.14654964,18.2092494 C8.13137653,18.2092494 8.11585055,18.2099581 8.10067744,18.2103124 C8.07280126,18.2117297 8.04492507,18.2124384 8.01810748,18.2088951 C7.48140276,18.1355478 7.27391927,18.3219278 7.27709504,18.9097687 C7.29932541,23.6879693 7.29791396,28.4654612 7.27815363,33.2433074 C7.27533072,33.808471 7.43553056,33.9884729 8.00117005,33.9689845 C9.15714946,33.9278817 10.3184218,33.9087476 11.472284,33.9721735 C12.2810462,34.017174 12.5788626,33.815912 12.5534565,32.9325561 C12.4857068,30.6531223 12.5305204,28.3704995 12.5305204,26.0892941 C12.5305204,24.8838482 12.5689825,23.6773392 12.5202874,22.473665 C12.4638293,21.0761698 13.1480308,19.1542595 12.2556401,18.4278738 C11.6571843,17.9406639 10.5865977,18.0366885 9.5160112,18.1323588 Z M19.7278684,33.6805562 C20.053561,34.035245 20.5553323,34.136939 21.1336748,34.136939 C21.5204128,34.136939 21.9410255,34.0915842 22.3662255,34.0462294 C22.9353937,33.9856382 23.5130305,33.925047 24.0278577,33.9725278 C24.8920194,34.0529617 25.0882112,33.7372497 25.0765667,32.90917 C25.0306946,29.5107479 25.0642165,26.1112628 25.0546892,22.7121321 C25.0497492,21.2561717 25.0112871,19.8002113 24.988351,18.3453138 C24.0807872,18.1631859 23.1668718,18.1869263 22.2533093,18.2110211 C21.6368576,18.2273205 21.0207587,18.2432655 20.4074826,18.196139 C19.674586,18.1394455 19.4558109,18.387834 19.4699255,19.1244954 C19.5143862,21.4046378 19.4858043,23.6851346 19.4858043,25.9656314 C19.4858043,27.1278485 19.4741598,28.2897113 19.4893329,29.4512197 C19.5080347,30.9064715 18.9910903,32.8776342 19.7278684,33.6805562 Z M9.81735626,39.4707361 C9.42744257,39.5129019 9.03329453,39.5550677 8.65925967,39.5550677 C8.52411312,39.5550677 8.39143661,39.5493983 8.26264159,39.5366423 C7.47116973,39.4576257 7.25980475,39.7233766 7.26933205,40.5216922 C7.31273421,44.4275213 7.26403911,48.3347677 7.30214832,52.2413054 C7.31520425,53.5938002 6.69310666,55.4505129 7.56997139,56.1613079 C8.12537785,56.6113127 9.09504556,56.5283984 10.0823564,56.4454841 C10.5813048,56.4036727 11.0851933,56.3622155 11.5414452,56.3887906 C12.3283298,56.4355628 12.567571,56.1978043 12.5506336,55.3931107 C12.498057,52.9471397 12.531579,50.4997514 12.531579,48.0527174 C12.531579,46.5928593 12.5435763,45.1330012 12.5276975,43.6734975 C12.5142887,42.3507668 12.9839494,40.5340939 12.3113924,39.8307399 C11.7633961,39.2581354 10.8032557,39.3647901 9.81735626,39.4707361 Z M24.1580642,39.5256579 C23.5641956,39.553296 22.9689156,39.5635717 22.3736357,39.5635717 C21.6830826,39.5635717 20.9921767,39.5493983 20.3019766,39.5316816 C19.7278684,39.5167996 19.4681612,39.6330213 19.4716898,40.2966898 C19.4974488,45.4171775 19.4932144,50.5369565 19.4755713,55.6574442 C19.4731012,56.2215447 19.6580015,56.4086333 20.208115,56.400838 C21.4071437,56.3841843 22.6114654,56.3622155 23.8062597,56.4490275 C24.6361936,56.5103273 24.727938,56.1687489 24.8136838,55.4377568 C25.1414936,52.6477271 25.0232844,49.8527366 25.0575121,47.0584548 C25.0575121,44.863707 25.0314003,42.6693135 25.0730381,40.4756287 C25.0871526,39.764125 24.9103682,39.4909332 24.1580642,39.5256579 Z" id="path-9"></path>
        <path d="M14.6723992,1.63171032 C14.8724726,0.716464337 15.2348629,0.331657082 16.1371338,0.331302747 C16.1879461,0.331302747 16.2412284,0.332720085 16.2959222,0.335200427 C18.1784466,0.418823366 20.0683812,0.395791624 21.9537286,0.345121792 C23.0493684,0.315357695 23.3246016,0.775283862 23.0539556,1.76352275 C22.4780831,3.86862395 21.6971972,5.03686476 20.6862445,7.16960405 L23.0539556,7.16960405 L47.7437845,7.16960405 C47.7437845,7.16960405 48.6026532,8.51217743 48.7109821,9.72222971 C48.9699836,12.6097015 48.0846502,15.0514204 46.6389702,17.4917221 C43.0616444,23.5309991 38.8879801,29.021412 33.0844412,33.3687419 C36.537912,35.6180572 40.1364096,37.2774056 43.9007528,38.5696635 C46.1604879,39.3453017 48.461508,40.0018835 50.752295,40.6829144 C51.4534339,40.8909087 51.9421492,41.2183138 52.2099723,41.9581642 C52.6027089,43.0441994 53.146118,44.0738954 53.5684951,45.1500093 C54.014514,46.28636 53.782683,46.5921507 52.5660112,46.3349038 C44.0630698,44.537365 35.6945693,42.310727 28.0067417,38.0859969 C27.1291712,37.6037477 26.5088379,37.6618585 25.6834912,38.0820992 C18.0503574,41.9684399 9.88087161,44.2921655 1.61858289,46.3409275 C1.40898223,46.3926603 1.22478771,46.4199441 1.06494074,46.4213614 L1.03635883,46.4213614 C0.430845805,46.4153377 0.185958837,46.0269871 0.245945558,45.1974901 C0.276644645,44.7637847 0.254767135,44.1149982 0.225126637,43.441054 L0.225126637,40.7357102 C0.231478172,40.7158675 0.238535434,40.6981508 0.245945558,40.6829144 C0.477776593,40.2049172 2.89559433,39.6617224 4.05333806,39.3693964 C5.16273954,39.0887635 13.943737,36.6222411 18.8478279,34.2793815 C19.4212304,34.0054809 19.986517,33.714218 20.6862445,33.3655528 C18.285717,31.5719117 16.1141977,29.7212226 14.1596892,27.6271058 C12.7842289,26.1534286 11.4327634,24.6535308 10.2940743,22.9878043 C9.77042547,22.2224418 9.18220274,21.9882267 8.27887329,22.0601566 C6.35788675,22.2132291 4.42807863,22.261773 2.49968197,22.3255532 C2.15493475,22.3368919 1.67892247,22.5367365 1.50707816,22.0208255 C1.33135235,21.4925128 1.74737791,21.2753057 2.10271102,21.0208936 C8.81416656,16.2076139 12.9147883,9.67652057 14.6723992,1.63171032 Z M25.9791905,28.7861339 C26.2191374,28.9902306 26.4075662,29.0809402 26.5896436,29.0809402 C26.7872469,29.0809402 26.977793,28.9742855 27.2205627,28.7893229 C30.1330945,26.5697717 32.6719443,23.9795866 34.9150948,21.0914061 C36.6144833,18.902682 38.1572007,16.6101379 39.4691455,14.1730252 C39.3558765,14.0947173 39.3251774,14.0550318 39.2944783,14.0550318 C32.3166112,14.0415671 25.338744,14.0330631 18.3612297,14.013929 C17.9949578,14.012866 17.7260762,14.0915283 17.4808364,14.3937756 C16.9691849,15.0237823 16.4395374,15.6449307 15.8643706,16.2164722 C15.3844769,16.6934065 15.3749496,17.057308 15.7786249,17.6249518 C18.7285602,21.7642873 22.1068712,25.4968468 25.9791905,28.7861339 Z" id="path-11"></path>
        <path d="M0.175372945,1.59875722 C0.170785725,0.417406028 0.562816593,0.0474808216 1.72444181,0.0474808216 L1.73820347,0.0474808216 C11.5026303,0.0719299013 21.2674099,0.0708668978 31.0325425,0.0698038944 C34.3787429,0.0694495599 37.7245905,0.0690952254 41.0711439,0.0694495599 C42.6103326,0.0701582289 42.7327761,0.191694959 42.7253659,1.77592446 C42.6823166,10.5070806 42.8594539,19.2392998 42.5104723,27.9686842 C42.3767372,31.3114758 42.4226094,31.3136018 39.1349842,31.3136018 C33.1380764,31.3139561 27.1404628,31.3136018 21.1432021,31.3136018 L21.1432021,31.5619903 C14.6311142,31.5619903 8.11867346,31.5293915 1.60729127,31.5914001 C0.423788544,31.6027388 0.173961492,31.1938368 0.177842986,30.1180772 C0.207483484,20.6119916 0.210659251,11.1055516 0.175372945,1.59875722 Z M8.52305453,24.5979002 C8.51776158,25.439799 8.75347411,25.6428326 9.53436008,25.6428326 C9.55094465,25.6428326 9.56788207,25.6428326 9.5848195,25.6424783 C12.4433632,25.6123599 15.3029655,25.6159032 18.1618621,25.6190922 C19.2864367,25.6201552 20.4106584,25.6219269 21.535233,25.6208639 C25.5614006,25.6208639 29.5882739,25.5815328 33.6137358,25.648502 C34.6169255,25.6651557 34.80112,25.3469634 34.7915927,24.4267567 C34.7280774,18.6234664 34.698084,12.8198218 34.721373,7.01653156 C34.7249016,6.09455321 34.3819187,5.99427655 33.6112658,5.99640256 C25.601627,6.0194343 17.5916354,6.02439499 9.58164373,5.99108754 C8.73900673,5.9875442 8.51987876,6.21183793 8.52517171,7.05302801 C8.5615166,12.9009644 8.56433951,18.7499638 8.52305453,24.5979002 Z" id="path-13"></path>
        <path d="M12.9511332,1.56757578 C10.8653596,9.92668071 7.4637596,17.7294805 2.46757143,24.7329017 C0.768182898,27.1140294 -0.0405792528,29.4558261 0.195486139,32.3284158 C0.293934935,33.526775 0.559287962,33.9700475 1.82606637,33.9654411 C5.85258684,33.9498504 9.87381435,33.7865022 14.100761,33.6476031 C11.2478631,38.5732068 8.15819412,43.0626248 4.56110801,47.1325107 C2.53814404,49.4215115 1.57659219,51.7445285 1.90898919,54.7719623 C2.04378289,56.0039834 2.40052745,56.4047357 3.60273192,56.3795779 C9.25771544,56.2605215 14.9141104,56.2353638 20.5687411,56.1056774 C22.4470312,56.0628029 24.3302614,55.9657152 26.2007885,55.6939407 C27.0854162,55.5653173 27.4799171,55.2393295 27.4227533,54.2918391 C27.3500635,53.0913539 27.3571208,51.8809472 27.4202832,50.679399 C27.4700369,49.7226959 27.1397571,49.3736764 26.1690308,49.4278896 C23.1746348,49.5961985 20.1777688,49.7382866 17.1798442,49.8173032 C14.8608281,49.878603 12.5396948,49.8297049 10.176218,49.8297049 C11.0760188,48.7319766 11.9461791,47.6817292 12.8050479,46.6219148 C19.705638,38.1015876 25.1238504,28.7095977 29.193773,18.5260244 C29.6472021,17.3903824 29.4986467,17.1625453 28.2809163,17.1519153 C27.6277667,17.1458916 26.9746172,17.1515609 26.3214677,17.1565216 C25.173957,17.1660887 24.0264463,17.1753014 22.8814056,17.1242772 C21.9463185,17.0828201 21.5331158,17.4282962 21.1954259,18.277636 C20.1498926,20.9029002 18.9981475,23.4859986 17.904272,26.0921288 C17.6787925,26.6300085 17.4296712,27.069029 16.7726402,27.1519432 C13.9412669,27.5069864 11.111658,27.881518 8.2682874,27.6827363 C8.23264823,27.5856487 8.19524474,27.5314355 8.20865354,27.5101754 C8.37167627,27.2582436 8.5357576,27.0063118 8.71183627,26.762884 C14.1819195,19.1879213 18.1262229,10.8624781 20.8464443,1.93289464 C21.2635284,0.563037503 21.1199132,0.366381862 19.6735275,0.360358176 C19.0881276,0.358232169 18.5030807,0.361775513 17.9176808,0.365318858 C16.7881662,0.371696879 15.6590043,0.378429234 14.531254,0.343704455 C14.4903219,0.342641451 14.4508012,0.341932782 14.4116334,0.341932782 C13.5714664,0.341932782 13.1801413,0.64878645 12.9511332,1.56757578 Z" id="path-15"></path>
        <path d="M29.5332273,0.209411683 C28.3927739,0.215435369 28.2664489,0.542131768 28.8197382,1.63312766 C29.86386,3.69322838 30.9185677,5.74801408 32.0544339,7.97217167 C31.6451127,7.99130573 31.3899928,8.01362881 31.1348728,8.01362881 C21.4466644,8.01575481 11.7577503,8.01504615 2.06918903,8.01504615 C1.72655899,8.01504615 1.38322322,8.01504615 1.04059319,8.01752649 C0.372976262,8.0228415 0.052576597,8.31587613 0.0501065556,9.0234821 L0.0501065556,9.04049016 C0.0677497089,13.3874657 0.0677497089,17.7344412 0.0501065556,22.0810624 L0.0501065556,22.1009051 C0.052576597,22.8007157 0.359214603,23.1118214 1.03071302,23.1128844 C1.90087334,23.1143017 2.77138653,23.1143017 3.64154686,23.1139474 C4.87198037,23.1139474 6.10241389,23.1135931 7.33320027,23.1178451 C8.0780942,23.1203254 8.39284806,22.8078024 8.37873354,22.0225972 C8.3399186,19.9146613 8.42601719,17.8028277 8.3399186,15.6973722 C8.29651644,14.6506681 8.53858051,14.3431058 9.64233618,14.3466491 C23.9604609,14.3898779 38.2785856,14.3753502 52.597416,14.3753502 C56.6698086,14.3753502 60.7425542,14.403697 64.8149468,14.3530272 C65.7249807,14.3416885 65.968809,14.5999983 65.94058,15.4978819 C65.8742417,17.6044004 65.9564588,19.7158796 65.9024708,21.8234612 C65.8784761,22.7691799 66.2175775,23.1405225 67.1509003,23.1256404 C69.079297,23.0941047 71.0098108,23.081703 72.9375018,23.1302468 C73.9209311,23.1546959 74.2579154,22.8007157 74.2579154,21.8266502 L74.2579154,21.8177918 C74.2579154,21.8029098 74.2579154,21.7883821 74.2575625,21.7735 C74.2088674,17.771292 74.2378022,13.7683752 74.2370964,9.76581286 C74.2370964,8.01717215 74.2353321,8.01575481 72.4438463,8.01575481 C62.5410972,8.01504615 52.6387009,8.00335311 42.735599,8.03630621 C41.9021364,8.03914089 41.4261241,7.81413849 41.0224488,7.07322507 C39.9553908,5.11659002 38.7997643,3.20885313 37.6871871,1.27737583 C37.4225398,0.818158336 37.1571867,0.448941798 36.527679,0.434768418 C34.2570052,0.384098586 31.9877428,0.258664177 29.7167161,0.211183356 C29.6747254,0.210120352 29.6341461,0.209766018 29.5942726,0.209411683 L29.5332273,0.209411683 Z" id="path-17"></path>
        <path d="M7.11865952,0.195946973 C5.44961721,0.246971139 3.77634055,0.215081035 2.10447533,0.20834868 C1.31688497,0.205159669 1.00918837,0.48543825 1.20608596,1.16682347 C1.37969459,1.7691921 1.49860945,2.38289944 1.63410887,2.9927091 C3.18670636,9.96069683 5.05405771,16.8489593 8.74112391,23.2687916 C8.99200955,23.7053317 8.94119727,24.0515165 8.71571777,24.4685682 C6.34694799,28.8495598 3.67577457,33.094487 0.88462771,37.287327 C0.611158833,37.6980006 0.339101408,38.0937923 0.350040163,38.6093489 C0.381444976,40.1110185 0.359567466,41.6137511 0.36239037,43.115775 C0.362743233,43.5250313 0.383209291,44.0012569 0.883216258,44.144408 C1.40933509,44.2957088 1.54518737,43.7953885 1.78231135,43.5144013 C5.53395149,39.0636058 9.00400689,34.4554857 12.3724377,29.5699218 C15.6004291,34.5189116 19.3273688,39.0593537 23.1397014,43.5505434 C23.3634166,43.8148769 23.4932702,44.2347633 23.9347019,44.1617704 C24.4530577,44.0760214 24.4287102,43.5934179 24.439296,43.2568001 C24.4770524,42.0485195 24.4022454,40.8366955 24.4717595,39.6298323 C24.5338634,38.5650571 24.4071855,36.7281871 24.439296,36.1647953 C24.4717595,35.5964428 19.5369695,28.6142817 17.2977004,24.4685682 C17.0902169,24.0844696 15.8806023,22.684494 16.1780659,22.1838194 C20.2808048,15.2760685 22.2596609,9.0624589 23.8990627,1.50131523 C24.0737299,0.694849933 23.8383702,0.411382342 22.913869,0.424492718 C21.4995938,0.445044118 20.0779085,0.505635316 18.6728078,0.406421659 C17.4698976,0.321381382 17.0083527,0.734889731 16.8343912,1.68946684 C16.3859023,4.14287885 16.002693,4.99540763 14.9818601,7.70819248 C13.9610273,10.420623 13.4839564,10.7069253 12.4144284,13.2648659 C11.6490684,11.6413053 10.859008,10.4741275 10.415812,8.96395391 C9.39709635,5.48970424 8.94825453,4.79449997 8.202302,1.27347815 C8.09503163,0.770677514 8.09997171,0.194883969 7.18817355,0.194883969 C7.16559031,0.194883969 7.14265421,0.195238304 7.11865952,0.195946973 Z" id="path-19"></path>
        <path d="M5.93021671,0.198427314 C4.38961656,0.27390056 2.84866354,0.338035103 1.30806339,0.411736676 C0.64644514,0.443272446 0.419201324,0.730992051 0.554700742,1.29154921 C2.36171251,8.7357625 4.33809855,14.7838979 8.30463229,21.664365 C8.63561785,22.2394499 8.6370293,24.0306107 8.30463229,24.6266013 C6.22027015,28.3517198 3.80633391,32.0927834 1.30806339,35.8862884 C0.554700742,37.0304345 0.104094605,40.7367732 0.0483422402,43.4003056 C0.0430492942,43.6653478 0.100565974,44.0388163 0.481658087,44.1362583 C0.959787543,44.2585037 1.13057327,43.8811375 1.34193825,43.6182213 C2.09283085,42.6841956 2.83560761,41.7455635 3.58332445,40.8094118 C6.48668177,37.1750029 9.2675956,33.4711445 11.9433562,29.7403567 C12.2799876,29.8218536 12.3050409,30.0224069 12.4038425,30.1790228 C15.3968271,34.9217899 19.0214365,39.3088052 22.7783696,43.621056 C23.0010262,43.8765311 23.1707533,44.2723228 23.6400612,44.131652 C24.0447951,44.0108239 24.1097219,43.6182213 24.1157206,43.2968399 C24.140421,42.0874963 24.0656141,40.8749637 24.1467726,39.6691634 C24.2208738,38.5622225 23.8789495,37.6193384 23.2247414,36.6658243 C20.6703656,32.9456665 19.1689333,28.4962883 16.9395444,24.6266013 C16.3880194,23.6691895 15.8940111,22.6543756 16.4825867,21.664365 C20.4904055,14.9245687 22.2900071,8.54690221 23.8217857,1.14804374 C23.9632838,0.465595519 23.6809933,0.167245879 22.893403,0.201970659 C21.6520307,0.255475167 20.4113641,0.324570392 19.1699919,0.37488589 C17.2490053,0.453902481 17.265237,0.452130808 16.9395444,2.02431294 C15.9247102,6.9275936 14.6459345,9.75872617 11.9433562,13.7751076 C11.5502668,12.9296655 10.2139743,11.0038576 9.93662398,10.3681815 C8.12714217,6.21608994 8.04668939,6.02333198 7.13524409,1.66572643 C7.01703496,1.10091726 7.23475147,0.194883969 6.05513024,0.195238304 C6.01525671,0.195238304 5.97326601,0.196301307 5.93021671,0.198427314 Z" id="path-21"></path>
        <path d="M28.3010295,0.389059269 C27.9629866,0.435122753 27.627061,0.501028968 27.2921939,0.572604535 C19.3859441,2.26065404 11.4119445,3.54795124 3.39313126,4.54504849 C0.330985557,4.92560373 0.323575433,4.86713854 0.323575433,7.95764396 C0.323575433,8.64611587 0.368036179,9.33777679 0.312636678,10.0216424 C0.238535434,10.941849 0.520825888,11.341184 1.52366273,11.3188609 C3.41218586,11.2777581 5.28765307,11.1278746 7.15853305,10.9028722 C13.6247488,10.1265254 19.8443132,8.1851267 26.1877325,6.82767127 C26.9361551,6.66751208 27.364178,6.30219322 27.6125936,5.56092547 C28.0741385,4.18114697 28.5706168,2.80597482 29.1644854,1.47899216 C29.5540462,0.60697498 29.322568,0.35362582 28.7470484,0.35362582 C28.6150776,0.35362582 28.4654636,0.367090531 28.3010295,0.389059269 Z" id="path-23"></path>
        <path d="M20.9738279,0.27390056 C15.3160214,0.27390056 10.1486947,2.33825329 6.38646866,5.66226514 C2.54731848,9.05360053 0.163022737,13.7474695 0.163022737,18.9235877 L0.163022737,28.7266057 C0.163022737,33.9009523 2.54731848,38.5948212 6.38646866,41.9882826 C10.1486947,45.3122945 15.3160214,47.3766472 20.9738279,47.3766472 L35.9080515,47.3766472 C37.4892309,47.3766472 38.7725938,46.1237205 38.7725938,44.5827198 C38.7725938,43.0399474 37.4892309,41.7887923 35.9080515,41.7887923 L20.9738279,41.7887923 C16.7617014,41.7887923 12.9528975,40.2849967 10.2104457,37.8634748 C7.54527097,35.5067962 5.8892846,32.2717223 5.8892846,28.7266057 L5.8892846,18.9235877 C5.8892846,15.3766995 7.54527097,12.1412713 10.2104457,9.78707293 C12.9528975,7.36555103 16.7617014,5.86140112 20.9738279,5.86140112 L35.1476316,5.86140112 C36.7284581,5.86140112 38.0118211,4.61060037 38.0118211,3.06782801 C38.0118211,1.52470131 36.7284581,0.27390056 35.1476316,0.27390056 L20.9738279,0.27390056 Z" id="path-25"></path>
        <path d="M0.308402321,3.10432446 L0.310872362,42.9467574 L0.310872362,55.8445328 C0.310872362,57.3876595 1.5917653,58.6381059 3.17082752,58.6381059 C4.75624129,58.6381059 6.03501704,57.3876595 6.03501704,55.8445328 L6.03713422,42.8751819 L6.03713422,29.741774 C6.08441787,26.2338626 5.84588244,23.4799749 8.33744856,21.0712091 C10.8293675,18.6624432 15.7726263,17.8056624 19.6717631,17.8056624 C23.5751344,17.8056624 29.4030208,17.8255051 31.9566908,20.2144283 C34.4824847,22.5799653 34.2030171,26.3334306 34.2030171,29.9079569 L34.2030171,55.8445328 C34.2030171,57.3876595 35.4860272,58.6381059 37.0672066,58.6381059 C38.648386,58.6381059 39.929279,57.3876595 39.929279,55.8445328 L39.929279,29.9079569 C39.929279,24.7598311 40.6833474,19.4976096 37.0672066,16.1130066 C33.4810593,12.7542699 25.5412874,12.861279 20.1188407,12.861279 C14.6988639,12.861279 9.62575162,12.7542699 6.03713422,16.1130066 L6.03713422,16.8308882 L6.03713422,3.10432446 C6.03713422,1.56119776 4.75412411,0.310397013 3.1729447,0.310397013 C1.5917653,0.310397013 0.308402321,1.56119776 0.308402321,3.10432446 Z" id="path-27"></path>
        <path d="M5.80742036,5.74943142 C9.26724274,2.3712064 14.046773,0.274254895 19.306197,0.274254895 C24.5642096,0.274254895 29.343387,2.3712064 32.8077966,5.74943142 C36.2693832,9.12730211 38.4200836,13.7928243 38.4200836,18.9239421 L38.4200836,23.8254511 L38.4183193,23.8970266 L38.4162021,23.9686022 L38.4116149,24.0398234 L38.4056163,24.111399 L38.3971475,24.1804942 L38.388326,24.2495894 L38.3756229,24.319039 L38.3629198,24.3884886 L38.3456295,24.4575838 L38.3279864,24.522427 L38.311049,24.5897505 L38.2895243,24.6567198 L38.2708226,24.721563 L38.2450636,24.7864062 L38.2210689,24.8491234 L38.1953099,24.9121949 L38.1656694,24.9749121 L38.1374403,25.0355033 L38.1056826,25.0978662 L38.0735721,25.1584574 L38.0411087,25.2172769 L38.0389915,25.2172769 L38.0047638,25.2732618 L37.9684189,25.331727 L37.9299568,25.3880662 L37.8914948,25.4444053 L37.8505627,25.4986185 L37.8099834,25.5507057 L37.7651698,25.6024385 L37.7221205,25.6541714 L37.7196505,25.6541714 L37.6751897,25.7041325 L37.6300232,25.7540937 L37.6275532,25.7540937 L37.5806224,25.8015745 L37.5315744,25.8469293 L37.4797036,25.8947645 L37.4310085,25.9376389 L37.3773733,25.9812221 L37.3237381,26.0244509 L37.2701029,26.0655537 L37.2122334,26.1045305 L37.156481,26.1410269 L37.1007286,26.1800037 L37.0986115,26.1800037 L37.0407419,26.2147285 L36.9807552,26.2494533 L36.9207685,26.2816977 L36.8586646,26.3142965 L36.7986778,26.3447693 L36.7965607,26.3447693 L36.7344568,26.3727617 L36.6702357,26.4011085 L36.6060146,26.4269749 L36.5417935,26.4507153 L36.5393235,26.4507153 L36.4751024,26.4723297 L36.4733381,26.4723297 L36.4087642,26.4939441 L36.406647,26.4939441 L36.3399559,26.5134325 L36.3381915,26.5134325 L36.2718533,26.5307949 L36.2033979,26.5481573 L36.2009278,26.5481573 L36.1342367,26.5633937 L36.1324724,26.5633937 L36.0640169,26.5761497 L36.0615469,26.5761497 L35.9934443,26.5867797 L35.9906214,26.5867797 L35.9225189,26.5977641 L35.9204017,26.5977641 L35.8498291,26.6041421 L35.847359,26.6041421 L35.7789036,26.6108745 L35.7743164,26.6108745 L35.7037438,26.6151265 L35.7016266,26.6151265 L35.631054,26.6172525 L35.6268196,26.6172525 L35.5583642,26.6193785 L35.5541298,26.6193785 L5.92104227,26.6193785 L5.92104227,28.72696 C5.92104227,32.3153054 7.42706184,35.5808521 9.85652406,37.9502868 C12.2835162,40.3179499 15.6275995,41.789501 19.306197,41.789501 L34.9500282,41.789501 C36.5305019,41.789501 37.8142178,43.0403017 37.8142178,44.5813024 C37.8142178,46.1262008 36.5305019,47.3770015 34.9500282,47.3770015 L19.306197,47.3770015 C14.046773,47.3770015 9.26971278,45.277924 5.80742036,41.9000533 C2.34336363,38.5239543 0.194780413,33.8580778 0.194780413,28.72696 L0.194780413,23.8254511 L0.194780413,18.9239421 C0.194780413,13.7928243 2.34336363,9.12730211 5.80742036,5.74943142 Z M5.92104227,18.9239421 L5.92104227,21.0318779 L32.6938218,21.0318779 L32.6938218,18.9239421 C32.6938218,15.333825 31.1835679,12.0682784 28.7562228,9.70096965 C26.3292306,7.33118058 22.9826773,5.86175545 19.306197,5.86175545 C15.6275995,5.86175545 12.2835162,7.33118058 9.85652406,9.70096965 C7.42706184,12.0682784 5.92104227,15.333825 5.92104227,18.9239421 Z" id="path-29"></path>
        <path d="M0.309108047,3.10538746 L0.309108047,11.554139 L0.309108047,17.1437656 L0.309108047,39.7127465 C0.309108047,44.8438643 2.45769126,49.5072605 5.91998368,52.8851312 C9.38157037,56.2633562 14.1611006,58.3603077 19.4208775,58.3603077 C21.0020569,58.3603077 22.2829498,57.1098613 22.2829498,55.5667346 C22.2829498,54.0236079 21.0020569,52.7728071 19.4208775,52.7728071 C15.74228,52.7728071 12.3981967,51.303382 9.96838165,48.933593 C7.54138948,46.5662842 6.03536991,43.3007376 6.03536991,39.7127465 L6.03536991,17.1437656 L19.3972357,17.1437656 C20.9780622,17.1437656 22.2617781,15.8908388 22.2617781,14.3498381 C22.2617781,12.8049398 20.9780622,11.554139 19.3972357,11.554139 L6.03536991,11.554139 L6.03536991,3.10538746 C6.03536991,1.5626151 4.75235979,0.311460016 3.17082752,0.311460016 C1.58964812,0.311460016 0.309108047,1.5626151 0.309108047,3.10538746 Z" id="path-31"></path>
        <path d="M18.2303175,1.80320822 C16.5401034,3.02814254 15.0961878,5.02765207 14.2175587,7.79287842 L14.1963869,7.86906034 L0.219480828,55.1014934 C-0.202543401,56.5840289 0.690905886,58.1179429 2.20998139,58.5296796 C3.72870403,58.9382273 5.30106186,58.0683361 5.72132178,56.5861549 L19.6827019,9.40935236 C20.1756516,7.86232798 20.8697333,6.83015161 21.6301532,6.27809848 C22.0031294,6.00774126 22.3799872,5.87344849 22.7314388,5.87344849 C23.0744217,5.87592883 23.457631,6.01624529 23.8433103,6.2936892 C24.6231377,6.85389202 25.3323925,7.90343078 25.8271065,9.44868349 L25.8292237,9.44655748 L39.7803708,56.5861549 C40.2002778,58.0683361 41.7726356,58.9382273 43.2913583,58.5296796 C44.8104338,58.1179429 45.7038831,56.5840289 45.2818589,55.1014934 L31.3070699,7.87756436 L31.283781,7.78898074 C30.4033876,5.04253412 28.9400645,3.03204022 27.2219742,1.79860187 C25.8486311,0.811780315 24.3062667,0.31181435 22.7314388,0.307562337 L22.7208529,0.307562337 C21.1541409,0.307916671 19.6110707,0.803276287 18.2303175,1.80320822 Z" id="path-33"></path>
        <path d="M19.8728951,0.0435831422 C14.4525655,0.0435831422 8.49447262,-0.122245399 4.90620809,3.23613689 C1.28971451,6.62109427 0.0624567629,11.2951205 0.0624567629,16.4414746 L0.0624567629,42.3798222 C0.0624567629,43.9229489 1.34581974,45.1733954 2.92488197,45.1733954 C4.50570851,45.1733954 5.78907148,43.9229489 5.78907148,42.3798222 L5.78907148,16.4414746 C5.78907148,12.870846 6.87518401,9.61592937 9.40097784,7.25251832 C11.9546479,4.8635952 15.9737582,5.1204877 19.8728951,5.1204877 C23.7737963,5.1204877 28.2717418,4.8635952 30.8257647,7.25251832 C33.3515585,9.61592937 33.9567187,12.870846 33.9567187,16.4414746 L33.9567187,42.3798222 C33.9567187,43.9229489 35.2397288,45.1733954 36.8209082,45.1733954 C38.4017348,45.1733954 39.6829806,43.9229489 39.6829806,42.3798222 L39.6829806,16.4414746 C39.6829806,11.2951205 38.4017348,6.62109427 34.785594,3.23613689 C31.5194935,0.179647586 26.3355822,0.0421658042 21.3439812,0.0421658042 C20.8513844,0.0421658042 20.3598461,0.0435831422 19.8728951,0.0435831422 Z" id="path-35"></path>
        <path d="M20.0676755,0.031181435 C14.6473459,0.031181435 8.68925304,-0.134647106 5.10063564,3.22408952 C1.48449492,6.60833822 0.257237176,11.2830731 0.257237176,16.4290729 L0.257237176,42.3670662 C0.257237176,43.9101929 1.54060015,45.1609937 3.11930952,45.1609937 C4.70048892,45.1609937 5.9838519,43.9101929 5.9838519,42.3670662 L5.9838519,16.4290729 C5.9838519,12.8584443 7.06996442,9.60352766 9.59611112,7.24011662 C12.1497811,4.85119349 16.1685386,5.108086 20.0676755,5.108086 C23.9689296,5.108086 28.467228,4.85119349 31.0205451,7.24011662 C33.546339,9.60352766 34.151852,12.8584443 34.151852,16.4290729 L34.151852,42.3670662 C34.151852,43.9101929 35.4348621,45.1609937 37.0160415,45.1609937 C38.5972209,45.1609937 39.8781138,43.9101929 39.8781138,42.3670662 L39.8781138,16.4290729 C39.8781138,11.2830731 38.596868,6.60833822 34.9807273,3.22408952 C31.7142739,0.167245879 26.5307154,0.0297640971 21.5387616,0.0297640971 C21.0461648,0.0297640971 20.5546265,0.031181435 20.0676755,0.031181435 Z" id="path-37"></path>
    </defs>
    <g id="Page-1" stroke="none" stroke-width="1" fill="none" fill-rule="evenodd">
        <g id="Artboard">
            <g id="Page-1">
                <g id="Group-3" transform="translate(0.000000, 0.041811)">
                    <mask id="mask-2" fill="white">
                        <use xlink:href="#path-1"></use>
                    </mask>
                    <g id="Clip-2"></g>
                    <polygon id="Fill-1" fill="#FEFEFE" mask="url(#mask-2)" points="-1.77527382 163.64584 163.778596 163.64584 163.778596 -1.81348392 -1.77527382 -1.81348392"></polygon>
                </g>
                <path d="M350.064052,12.307773 L337.079397,12.307773 C333.392683,12.307773 329.705617,12.3155684 326.018904,12.3042297 C324.499475,12.2996234 324.298343,11.9669033 325.083817,10.6675587 C325.902459,9.31506395 326.286374,7.46118591 327.575736,6.70042976 C328.866509,5.93825627 330.665757,6.47507302 332.240232,6.46727766 C341.756597,6.42015118 351.273313,6.40385179 360.790383,6.38011138 C362.505651,6.37550503 362.505651,6.38117438 362.507415,8.02634942 C362.510944,12.186945 362.46613,12.1337948 359.268132,14.8402016 C351.937402,21.0456616 344.25028,26.7440688 335.839083,31.6583338 C336.36379,31.9935343 336.83204,31.8744779 337.261121,31.8748322 C346.478257,31.8829819 355.695041,31.8805016 364.912177,31.8819189 C366.674728,31.8819189 366.676492,31.8851079 366.676492,33.6642214 C366.677551,45.6726172 366.676139,57.6806587 366.680726,69.6887002 C366.681785,71.1124162 366.597451,72.5247935 366.240353,73.9063437 C365.154241,78.1119397 362.179958,80.6886601 357.727179,81.0950818 C353.665372,81.46607 349.590157,81.0578766 345.520587,81.1018141 C344.542098,81.1120898 344.296505,80.6131869 344.884022,79.7829812 C344.933423,79.7135316 344.965533,79.631326 345.011053,79.5590418 C345.813463,78.294422 346.352638,76.6201915 347.492739,75.8792781 C348.649071,75.1287976 350.409152,75.6967958 351.904233,75.6634884 C353.017163,75.6379763 354.127976,75.6872288 355.229967,75.4423837 C357.224349,74.9984026 358.537,73.6356321 358.893744,71.6191145 C359.097346,70.4650471 359.054297,69.3056646 359.053591,68.1448649 C359.050063,58.4609033 359.036301,48.7769417 359.074057,39.0929801 C359.078292,38.0934025 358.839756,37.7489894 357.815748,37.8205649 C356.493217,37.9130462 355.154454,37.9119832 353.831571,37.8216279 C352.764866,37.7482807 352.410238,37.9828501 352.40424,39.178729 C352.366483,46.2994349 351.499146,53.3134861 349.361854,60.1333621 C346.600701,68.9428261 341.838461,76.4504653 334.892351,82.5354515 C334.513023,82.8671086 334.123815,83.3915236 333.578642,83.114434 C333.12486,82.8841166 333.200726,82.2973387 333.21237,81.8221761 C333.213076,81.7793017 333.21731,81.7353642 333.211664,81.6928441 C332.798462,78.3128474 333.748369,75.5472667 335.86096,72.7193231 C340.453473,66.5730371 342.687096,59.3389441 343.960932,51.8107536 C344.679714,47.5640547 344.996938,43.2826311 345.079155,38.976404 C345.096093,38.0732054 344.888609,37.7854858 343.969401,37.8223366 C342.171563,37.8939122 340.367022,37.8924948 338.569184,37.8223366 C337.687027,37.7876118 337.408971,38.0232443 337.395915,38.9402619 C337.311228,45.0620989 336.594916,51.1035019 334.956925,57.0198249 C332.270932,66.7207945 327.120895,74.8669445 319.649725,81.5564253 C319.365671,81.8108374 319.095025,82.1616286 318.657827,81.9451302 C318.259092,81.7481202 318.231922,81.3487853 318.233686,80.9427179 C318.243213,79.3503387 318.251682,77.7576052 318.229804,76.1655804 C318.222394,75.655693 318.40553,75.2687598 318.71605,74.8850155 C324.815994,67.3376909 328.033752,58.5976764 329.330524,49.0565116 C329.794539,45.6417901 330.063773,42.2182103 330.096236,38.7723074 C330.102235,38.0647014 329.951563,37.7872575 329.192201,37.82588 C327.951888,37.8900145 326.705222,37.8102892 325.46385,37.8538724 C324.539702,37.8857625 324.120853,37.5413494 324.159315,36.5807486 C324.204129,35.4635319 324.211186,34.3410003 324.15614,33.2248466 C324.114149,32.3822392 324.465953,31.92125 325.172385,31.4875446 C333.770952,26.2083151 341.781297,20.1339589 349.308572,13.4101076 C349.616268,13.1354984 349.965603,12.9076613 350.295177,12.6575012 C350.218253,12.5412795 350.141329,12.4243491 350.064052,12.307773" id="Fill-4" fill="#FEFEFE"></path>
                <g id="Group-8" transform="translate(317.929624, 6.065498)">
                    <mask id="mask-4" fill="white">
                        <use xlink:href="#path-3"></use>
                    </mask>
                    <g id="Clip-7"></g>
                    <polygon id="Fill-6" fill="#FEFEFE" mask="url(#mask-4)" points="-1.64504762 79.080017 50.6958369 79.080017 50.6958369 -1.72738063 -1.64504762 -1.72738063"></polygon>
                </g>
                <path d="M451.450503,5.96926054 C453.088846,5.96961487 453.103314,5.98307958 453.103314,7.6229396 C453.104372,28.5013907 453.102961,49.3794875 453.106842,70.2582929 C453.107548,71.59626 453.033447,72.9253686 452.732102,74.2296739 C451.625523,79.0216935 448.329076,81.8595584 443.399932,82.1518844 C438.477492,82.4445647 433.543761,82.3705088 428.614617,82.4077139 C428.176361,82.4109029 427.722226,82.432163 427.491101,81.9711738 C427.267386,81.5240037 427.666121,81.2649852 427.88419,80.9705332 C428.877853,79.6240621 429.898686,78.2974338 430.876469,76.9392697 C431.262854,76.402453 431.709579,76.1880806 432.380019,76.1781592 C435.123176,76.1374108 437.864569,76.0314648 440.607021,75.9570545 C443.536843,75.8776836 445.090146,74.3118795 445.090499,71.3365328 C445.096851,52.0079407 445.084501,35.9062729 445.105672,16.5776808 C445.106378,15.7371994 445.131078,14.2248998 444.288441,14.2259628 C426.537312,14.2511206 408.276295,14.2720263 390.52446,14.2259628 C389.357895,14.2227738 389.737223,15.8165703 389.737576,16.5776808 C389.745339,38.9198877 389.737576,58.2736375 389.737576,80.6158444 C389.737576,82.6454723 389.736517,82.6458267 387.76366,82.6465353 C386.048745,82.6468897 384.333478,82.6256296 382.618916,82.654685 C381.707118,82.6702757 381.238163,82.3194846 381.30309,81.3659705 C381.320027,81.109078 381.305207,80.8497051 381.305207,80.5913953 C381.305207,56.3984994 381.305207,32.2048948 381.305913,8.01164453 C381.305913,5.96926054 381.306265,5.96855187 383.401919,5.96855187 L417.233371,5.96855187 C428.638964,5.96855187 440.044557,5.96819754 451.450503,5.96926054" id="Fill-9" fill="#FEFEFE"></path>
                <g id="Group-13" transform="translate(381.092113, 5.711163)">
                    <mask id="mask-6" fill="white">
                        <use xlink:href="#path-5"></use>
                    </mask>
                    <g id="Clip-12"></g>
                    <polygon id="Fill-11" fill="#FEFEFE" mask="url(#mask-6)" points="-1.73961492 78.896826 73.9597461 78.896826 73.9597461 -1.69549053 -1.73961492 -1.69549053"></polygon>
                </g>
                <path d="M255.794813,42.1127249 L255.137782,42.1127249 L223.903755,42.1127249 C223.732616,42.1127249 223.560772,42.1247723 223.390339,42.1113076 C222.951024,42.0765828 222.798588,42.2448917 222.843401,42.7051722 C223.257662,47.0043125 224.050899,51.1964439 226.196659,55.0190043 C229.013212,60.0363807 233.347429,63.4780316 238.029569,66.577041 C238.78646,67.07807 239.339044,67.0181875 240.0977,66.6270022 C250.007859,61.5164359 254.010737,52.6049235 255.794813,42.1127249 M223.724853,64.6895012 C218.639038,59.504879 215.943517,53.1814257 214.816472,46.0954446 C214.654508,45.0777959 214.482664,44.0555409 214.429029,43.0290339 C214.386685,42.2275293 214.053582,42.0900475 213.320686,42.0942995 C208.691475,42.1205203 204.061559,42.0950082 199.431642,42.0811891 C197.773892,42.0762285 197.661681,41.9617784 197.654271,40.3516825 C197.649331,39.3191518 197.702613,38.2827234 197.64051,37.2537361 C197.568525,36.0723849 198.08053,35.6801366 199.219219,35.6865146 C203.677291,35.7095464 208.135716,35.6709239 212.593788,35.6574592 C214.299881,35.6524985 214.299881,35.6553332 214.299881,34.0055518 C214.299881,31.5957229 214.328815,29.1848311 214.28506,26.7753565 C214.269182,25.8948353 214.532417,25.5440442 215.45339,25.5638869 C217.767466,25.6152654 220.084012,25.6134938 222.397735,25.5645956 C223.306005,25.5454615 223.611584,25.8671972 223.573122,26.7647265 C223.460206,29.3868017 223.42492,32.0124203 223.315179,34.6352042 C223.284833,35.3562749 223.369167,35.6801366 224.241798,35.6773019 C234.530579,35.6418685 244.819713,35.6450575 255.108494,35.6730499 C255.886557,35.6751759 256.001591,35.397732 255.992416,34.7152838 C255.957483,32.0471451 256.000179,29.378652 255.965246,26.710159 C255.953954,25.8863313 256.211544,25.5514852 257.067943,25.5670759 C259.33897,25.6085331 261.612114,25.6074701 263.883493,25.5677846 C264.728953,25.5525482 265.026417,25.8636539 264.992189,26.700592 C264.887389,29.2797927 264.884213,31.8646628 264.726836,34.4403202 C264.661909,35.504741 265.023241,35.6868689 265.984793,35.6787193 C270.185628,35.6425771 274.386815,35.6854516 278.588003,35.7024597 C280.20835,35.709192 280.247518,35.7499405 280.253517,37.3699578 C280.257751,38.4453629 280.191766,39.5260831 280.271865,40.5965276 C280.356553,41.7438627 279.869954,42.1013862 278.787371,42.0957169 C274.457741,42.0723308 270.127052,42.154182 265.799187,42.0755198 C264.668261,42.0549684 264.389146,42.4195786 264.293167,43.4510463 C263.466056,52.3405899 259.487172,59.6232267 252.974731,65.5909282 C251.10985,67.2995291 249.080182,68.799427 246.86032,70.3790501 C250.030795,71.3821711 253.093293,72.1471792 256.173082,72.8416748 C263.638959,74.525118 270.058597,75.7815881 277.627863,76.9027024 C278.595413,77.0458535 278.981798,77.1790833 279.661765,77.9242487 C280.877026,79.2547747 282.131807,80.7334126 283.402819,82.0136231 C283.641002,82.2531532 283.608186,82.314453 283.977633,82.7786312 C284.347081,83.2428094 284.599378,83.4883632 284.178765,83.418205 C276.96942,82.2088614 269.887811,81.0278645 262.695756,79.7193072 C254.9243,78.3055126 247.163782,76.8038431 239.60722,74.4273217 C239.088511,74.2643278 238.609676,74.3511397 238.105788,74.5105903 C227.650455,77.8161767 216.946707,80.0059639 206.125808,81.6688556 C204.815274,81.8704719 203.506858,82.0841356 202.20197,82.314453 C201.789826,82.387446 201.403794,82.3736269 201.168082,82.0136231 C200.894966,81.596217 201.238301,81.2989304 201.476837,81.0019981 C201.530825,80.9353832 201.608102,80.883296 201.64727,80.8092401 C203.488156,77.3651089 206.631108,76.5536829 210.219019,76.0345829 C217.20959,75.0236666 223.919281,72.7977373 230.736948,70.4031449 C228.172692,68.6970243 225.834621,66.8399572 223.724853,64.6895012" id="Fill-14" fill="#FEFEFE"></path>
                <g id="Group-18" transform="translate(197.603318, 25.553895)">
                    <mask id="mask-8" fill="white">
                        <use xlink:href="#path-7"></use>
                    </mask>
                    <g id="Clip-17"></g>
                    <polygon id="Fill-16" fill="#FEFEFE" mask="url(#mask-8)" points="-1.91428214 59.8290242 88.7387099 59.8290242 88.7387099 -1.94352467 -1.91428214 -1.94352467"></polygon>
                </g>
                <path d="M301.878271,26.4854401 C301.878271,25.2803485 301.916733,24.0734852 301.868038,22.8698109 C301.811227,21.47267 302.495781,19.5504054 301.603391,18.8240197 C300.742052,18.1224374 298.903635,18.6291358 297.4943,18.6053954 C297.451604,18.605041 297.407849,18.6107104 297.365858,18.605041 C296.829153,18.5316938 296.62167,18.7180737 296.624846,19.3059146 C296.646723,24.0837609 296.646017,28.8616071 296.625904,33.6394534 C296.623081,34.2046169 296.783281,34.3846188 297.348568,34.3647761 C298.5049,34.3240276 299.666172,34.3048936 300.819682,34.3683194 C301.628797,34.4133199 301.926613,34.2120579 301.900854,33.3287021 C301.833457,31.0492683 301.878271,28.7666455 301.878271,26.4854401 M301.87933,48.4488634 C301.87933,46.9890053 301.890974,45.5291472 301.875801,44.0699978 C301.861686,42.7469128 302.3317,40.9302399 301.659143,40.2268859 C300.816153,39.345656 298.99785,40.0720417 297.610039,39.9324339 C296.818567,39.8534173 296.607908,40.1195225 296.617083,40.9178381 C296.660132,44.8236672 296.61179,48.7309136 296.649899,52.6374514 C296.662955,53.9895918 296.040857,55.8470132 296.917369,56.5570995 C297.75436,57.2349414 299.531026,56.7045026 300.889196,56.7849366 C301.67608,56.8313544 301.915322,56.5939503 301.898384,55.789611 C301.845808,53.34364 301.87933,50.8958974 301.87933,48.4488634 M308.833908,26.3621317 C308.833908,27.5236401 308.82191,28.6855029 308.837084,29.8473657 C308.856138,31.3026174 308.338841,33.2737802 309.075619,34.0767022 C309.91014,34.9852158 311.898876,34.232255 313.375608,34.3690281 C314.23977,34.4491077 314.435609,34.1333957 314.424317,33.305316 C314.378445,29.9068939 314.411967,26.5070545 314.40244,23.1079237 C314.3975,21.6523176 314.359038,20.1967115 314.335749,18.7414598 C312.81632,18.4360235 311.278543,18.7092154 309.755586,18.5919306 C309.022337,18.5355915 308.803562,18.7843343 308.818029,19.5209957 C308.862137,21.8004294 308.833908,24.0812806 308.833908,26.3621317 M314.405263,47.4546008 C314.405263,45.2602073 314.379151,43.0654595 314.420789,40.8717747 C314.43455,40.160271 314.258119,39.8870791 313.505815,39.9218039 C312.223157,39.9809778 310.934854,39.961135 309.65008,39.9278276 C309.075619,39.9129455 308.815912,40.0291672 308.81944,40.6928357 C308.845199,45.8133234 308.840965,50.9331025 308.822969,56.0535902 C308.820852,56.6176907 309.005752,56.8047793 309.555866,56.7969839 C310.755247,56.7803302 311.959216,56.7580071 313.15401,56.8455278 C313.983944,56.9064733 314.075689,56.5648949 314.161434,55.8339028 C314.489244,53.043873 314.371035,50.2485282 314.405263,47.4546008 M289.68297,14.718346 C289.68297,13.0161231 289.725667,12.973603 291.404237,12.97254 C294.533779,12.9707683 297.663674,12.9339175 300.792158,12.9955717 C301.721953,13.0136428 301.915674,12.7170648 301.898737,11.8407956 C301.842632,9.0018677 301.914263,5.02552606 301.859216,2.18659813 C301.838045,1.09808258 302.13692,0.469847533 303.306661,0.538588424 C304.673652,0.618313684 306.0537,0.628589384 307.41928,0.538588424 C308.607017,0.460634836 308.882603,1.10729528 308.862137,2.18659813 C308.808502,4.98265159 308.880133,8.9104494 308.819087,11.7065029 C308.797916,12.6756077 309.003635,13.0253358 310.056931,13.0001781 C313.227759,12.9225788 316.401409,13.0051388 319.572942,12.9541146 C320.68552,12.9360435 321.08002,13.3208508 321.078609,14.4497605 C321.053909,28.910151 321.068729,43.3708958 321.054261,57.8316407 C321.053203,58.9467313 320.855247,60.0618219 320.842897,61.1776212 C320.833016,62.0319217 320.479095,62.2788928 319.668568,62.2732235 C316.454339,62.2509004 313.238345,62.3150349 310.024115,62.2703888 C309.091498,62.2576328 308.80462,62.4727138 308.813795,63.4691024 C308.868841,69.3219995 308.814853,75.1759596 308.862137,81.0285023 C308.872017,82.244224 308.528328,82.761198 307.255198,82.6665907 C305.97607,82.5723377 304.681062,82.5850937 303.399816,82.663756 C302.193025,82.7381662 301.8511,82.2311136 301.859216,81.0781091 C301.900501,75.3974186 301.877918,69.7167281 301.877918,64.0353289 C301.877918,62.3072396 301.877918,62.3072396 300.22052,62.3072396 C297.262822,62.3072396 294.303007,62.2505461 291.347426,62.334169 C290.075707,62.3696025 289.642038,62.0251893 289.652624,60.6829703 C289.713317,53.022613 289.682618,45.3611926 289.682618,37.7008353 C289.682618,30.0401237 289.681559,22.3790577 289.68297,14.718346" id="Fill-19" fill="#FEFEFE"></path>
                <g id="Group-23" transform="translate(289.347715, 0.396146)">
                    <mask id="mask-10" fill="white">
                        <use xlink:href="#path-9"></use>
                    </mask>
                    <g id="Clip-22"></g>
                    <polygon id="Fill-21" fill="#FEFEFE" mask="url(#mask-10)" points="-1.64010754 84.2345208 33.6754868 84.2345208 33.6754868 -1.81667293 -1.64010754 -1.81667293"></polygon>
                </g>
                <g id="Group-26" transform="translate(494.008294, 1.459149)">
                    <mask id="mask-12" fill="white">
                        <use xlink:href="#path-11"></use>
                    </mask>
                    <g id="Clip-25"></g>
                    <polygon id="Fill-24" fill="#FEFEFE" mask="url(#mask-12)" points="-1.78583998 48.3744531 55.7237827 48.3744531 55.7237827 -1.62143462 -1.78583998 -1.62143462"></polygon>
                </g>
                <path d="M520.836438,74.9150631 C524.862606,74.9150631 528.889479,74.8757319 532.914941,74.9430555 C533.918131,74.9593549 534.102325,74.6411625 534.092798,73.7206015 C534.029282,67.9180199 533.999289,62.114021 534.022578,56.3110851 C534.026107,55.3887524 533.683124,55.2884757 532.912471,55.2906017 C524.902832,55.3139878 516.89284,55.3185942 508.882849,55.285641 C508.039859,55.2817434 507.821437,55.5060371 507.826377,56.3472272 C507.863075,62.1951636 507.865192,68.044163 507.824612,73.8920994 C507.818967,74.7517149 508.064912,74.9455358 508.886025,74.9366775 C512.86879,74.8945117 516.852614,74.9175434 520.836438,74.9150631 M520.444407,80.8561895 C513.932319,80.8561895 507.419879,80.8235907 500.908849,80.8855992 C499.724994,80.8969379 499.475519,80.4880359 499.479401,79.4122764 C499.508689,69.9061907 499.511864,60.3997507 499.476578,50.8929564 C499.471991,49.7069988 499.867197,49.3391996 501.039409,49.34168 C514.150389,49.3742788 527.261016,49.3615227 540.371996,49.3640031 C541.911538,49.3643574 542.033981,49.4858941 542.026218,51.0701236 C541.983522,59.8012798 542.161012,68.5338533 541.811677,77.2628834 C541.677942,80.605675 541.723815,80.607801 538.436189,80.607801 C532.439281,80.6081553 526.441668,80.607801 520.444407,80.607801 L520.444407,80.8561895" id="Fill-27" fill="#FEFEFE"></path>
                <g id="Group-31" transform="translate(499.301240, 49.294305)">
                    <mask id="mask-14" fill="white">
                        <use xlink:href="#path-13"></use>
                    </mask>
                    <g id="Clip-30"></g>
                    <polygon id="Fill-29" fill="#FEFEFE" mask="url(#mask-14)" points="-1.76960828 33.5444918 44.6777573 33.5444918 44.6777573 -1.90561088 -1.76960828 -1.90561088"></polygon>
                </g>
                <path d="M479.879798,35.1068943 C475.652852,35.2457934 471.631977,35.4091416 467.605457,35.4247323 C466.338325,35.4293386 466.073325,34.9860662 465.974876,33.787707 C465.738811,30.9147629 466.54722,28.5733206 468.246609,26.1918385 C473.243503,19.1884173 476.64475,11.3859719 478.730523,3.02686694 C478.970117,2.06520314 479.387201,1.77394019 480.310291,1.80299561 C482.023441,1.85579145 483.739062,1.81256265 485.452918,1.819295 C486.899303,1.82567302 487.042919,2.02197433 486.625482,3.39183146 C483.905613,12.3214149 479.960957,20.6472124 474.491226,28.2218208 C474.314795,28.4652486 474.150714,28.7171804 473.987691,28.9694666 C473.974635,28.9907266 474.012038,29.0449398 474.047678,29.1420275 C476.891048,29.3408091 479.720304,28.9662776 482.55203,28.6108801 C483.209061,28.5283201 483.45783,28.0892997 483.683662,27.5514199 C484.777538,24.9452898 485.92893,22.361837 486.974463,19.7365728 C487.312506,18.887233 487.725709,18.5421112 488.660796,18.5835684 C490.457222,18.6629393 492.259646,18.5949071 494.059954,18.6108521 C495.278037,18.6218365 495.426592,18.8496736 494.973163,19.9849613 C490.902888,30.1688888 485.484675,39.5608788 478.584085,48.0808516 C477.725569,49.1410204 476.855056,50.1909135 475.955608,51.288996 C478.318732,51.288996 480.640218,51.3378942 482.959234,51.27624 C485.956806,51.1972234 488.954025,51.0554896 491.948068,50.8868264 C492.919147,50.8326132 493.249074,51.181987 493.199321,52.1386901 C493.136511,53.3402384 493.129101,54.550645 493.201791,55.7511303 C493.258954,56.6986207 492.864453,57.0242541 491.980179,57.1532318 C490.109651,57.4246521 488.226068,57.5217397 486.347778,57.5646142 C480.693501,57.6943006 475.036753,57.7198127 469.382122,57.8385147 C468.179918,57.8640268 467.823173,57.4629202 467.688026,56.2308992 C467.355982,53.2038196 468.317534,50.8808027 470.340145,48.5918019 C473.937231,44.5215616 477.027253,40.032498 479.879798,35.1068943" id="Fill-32" fill="#FEFEFE"></path>
                <g id="Group-36" transform="translate(465.779249, 1.459149)">
                    <mask id="mask-16" fill="white">
                        <use xlink:href="#path-15"></use>
                    </mask>
                    <g id="Clip-35"></g>
                    <polygon id="Fill-34" fill="#FEFEFE" mask="url(#mask-16)" points="-1.78936861 58.3333783 31.3744668 58.3333783 31.3744668 -1.61115892 -1.78936861 -1.61115892"></polygon>
                </g>
                <g id="Group-39" transform="translate(201.837675, 1.104815)">
                    <mask id="mask-18" fill="white">
                        <use xlink:href="#path-17"></use>
                    </mask>
                    <g id="Clip-38"></g>
                    <polygon id="Fill-37" fill="#FEFEFE" mask="url(#mask-18)" points="-1.89452181 25.0844015 76.2028966 25.0844015 76.2028966 -1.74332569 -1.89452181 -1.74332569"></polygon>
                </g>
                <path d="M419.219108,64.8161758 C418.982337,65.0971631 418.846485,65.5974834 418.320366,65.4465369 C417.820359,65.3030314 417.799893,64.8268058 417.79954,64.4175495 C417.796717,62.9155256 417.818595,61.412793 417.786837,59.9111235 C417.775898,59.3955668 418.048309,58.9997752 418.321778,58.5891015 C421.112572,54.3966158 423.784098,50.1513343 426.152868,45.7703427 C426.378347,45.353291 426.428807,45.0071062 426.177921,44.5709204 C422.491208,38.1510882 420.623503,31.2628257 419.071259,24.294838 C418.935406,23.684674 418.816492,23.0709666 418.643236,22.4689523 C418.446338,21.7872128 418.754035,21.5069342 419.541625,21.5101232 C421.213138,21.5168556 422.886767,21.5491 424.555809,21.4980758 C425.537122,21.4683117 425.529711,22.0600503 425.639452,22.5752527 C426.385404,26.0962745 426.834246,26.7918331 427.852962,30.2660828 C428.295805,31.775902 429.085865,32.9434342 429.851578,34.5669948 C430.921106,32.0090541 431.397824,31.7227518 432.418657,29.009967 C433.43949,26.2975365 433.823052,25.4446534 434.271541,22.9912414 C434.445503,22.0370186 434.906695,21.6235102 436.109958,21.7081962 C437.514706,21.8077642 438.936744,21.747173 440.350666,21.7262672 C441.275167,21.7131569 441.51088,21.9969788 441.33586,22.8030898 C439.696458,30.3645878 437.717955,36.577843 433.614863,43.4855939 C433.317399,43.9862685 434.527014,45.3862441 434.73485,45.7703427 C436.974119,49.9160562 441.908909,56.8982173 441.876093,57.4665698 C441.844335,58.0299617 441.97066,59.8668317 441.908909,60.9316068 C441.839395,62.1381157 441.914202,63.3499397 441.876093,64.5582203 C441.865507,64.8951924 441.890208,65.377796 441.371852,65.4635449 C440.93042,65.5365378 440.800214,65.1166514 440.576498,64.8526723 C436.764519,60.3611283 433.037579,55.8210405 429.809235,50.8720506 C426.440804,55.7576146 422.971101,60.3650259 419.219108,64.8161758" id="Fill-40" fill="#FEFEFE"></path>
                <g id="Group-44" transform="translate(417.437009, 21.301881)">
                    <mask id="mask-20" fill="white">
                        <use xlink:href="#path-19"></use>
                    </mask>
                    <g id="Clip-43"></g>
                    <polygon id="Fill-42" fill="#FEFEFE" mask="url(#mask-20)" points="-1.59529393 46.1254921 26.4336781 46.1254921 26.4336781 -1.75749907 -1.59529393 -1.75749907"></polygon>
                </g>
                <path d="M408.617514,23.326052 C408.943207,21.7538699 408.926622,21.7556416 410.847961,21.6769793 C412.089334,21.6263095 413.330353,21.5572143 414.571372,21.5037097 C415.358963,21.4693393 415.641606,21.7676889 415.499755,22.4497828 C413.967977,29.8489956 412.168375,36.2263078 408.160556,42.9664584 C407.571981,43.9561147 408.065989,44.9709286 408.617514,45.9286948 C410.847256,49.7980274 412.348335,54.2474056 414.902711,57.9679177 C415.556919,58.9214318 415.898843,59.8639615 415.824742,60.9712568 C415.743584,62.1767028 415.818391,63.3895897 415.794043,64.5989333 C415.787691,64.9203147 415.722765,65.312563 415.318384,65.4337454 C414.848723,65.5744162 414.678996,65.1786246 414.456692,64.922795 C410.699759,60.6105443 407.074797,56.223529 404.081812,51.4811162 C403.98301,51.324146 403.95831,51.1235927 403.621326,51.0420958 C400.945565,54.7728836 398.164651,58.476742 395.261294,62.1115052 C394.51393,63.0473026 393.7708,63.9859347 393.020261,64.9203147 C392.808543,65.1828766 392.637757,65.5602428 392.159275,65.4379974 C391.778536,65.3409097 391.721019,64.9674412 391.726312,64.7020447 C391.782064,62.0388666 392.233023,58.3321736 392.986386,57.1883818 C395.484303,53.3948768 397.898593,49.6538132 399.982602,45.9286948 C400.314999,45.3327041 400.313587,43.5415433 399.982602,42.9664584 C396.016421,36.085637 394.040035,30.0375016 392.233023,22.5932883 C392.097171,22.0327311 392.324415,21.7450115 392.986386,21.7134758 C394.526633,21.6401285 396.067586,21.5756396 397.608186,21.5001664 C398.927894,21.4349689 398.691123,22.3835223 398.813214,22.9674655 C399.724659,27.3254254 399.805112,27.517829 401.614594,31.6699206 C401.891944,32.3055966 403.228589,34.2317589 403.621326,35.077201 C406.324257,31.0604653 407.60268,28.2293327 408.617514,23.326052" id="Fill-45" fill="#FEFEFE"></path>
                <g id="Group-49" transform="translate(391.678005, 21.301881)">
                    <mask id="mask-22" fill="white">
                        <use xlink:href="#path-21"></use>
                    </mask>
                    <g id="Clip-48"></g>
                    <polygon id="Fill-47" fill="#FEFEFE" mask="url(#mask-22)" points="-1.89663899 46.1141534 26.101634 46.1141534 26.101634 -1.7578534 -1.89663899 -1.7578534"></polygon>
                </g>
                <path d="M465.397169,76.7400983 C465.397169,73.6499472 465.404579,73.7084124 468.466372,73.3275028 C476.485891,72.3304056 484.459537,71.0431084 492.365787,69.3550589 C492.700302,69.2838376 493.03658,69.2175771 493.374976,69.1715136 C494.257486,69.0528116 494.716914,69.1902933 494.238079,70.2618008 C493.64421,71.5887835 493.147732,72.9639556 492.686187,74.3437341 C492.437771,75.0850019 492.009749,75.4503208 491.261326,75.6104799 C484.917907,76.9679354 478.697989,78.909334 472.232126,79.6856809 C470.361246,79.910329 468.485426,80.0602125 466.597256,80.1013153 C465.594419,80.1236383 465.312129,79.7243034 465.38623,78.804451 C465.44163,78.1202311 465.397169,77.4285702 465.397169,76.7400983" id="Fill-50" fill="#FEFEFE"></path>
                <g id="Group-54" transform="translate(465.073523, 68.782702)">
                    <mask id="mask-24" fill="white">
                        <use xlink:href="#path-23"></use>
                    </mask>
                    <g id="Clip-53"></g>
                    <polygon id="Fill-52" fill="#FEFEFE" mask="url(#mask-24)" points="-1.6432833 13.2726613 31.3021298 13.2726613 31.3021298 -1.59911155 -1.6432833 -1.59911155"></polygon>
                </g>
                <path d="M343.549847,115.119945 C345.131026,115.119945 346.414036,116.370746 346.414036,117.913872 C346.414036,119.456645 345.131026,120.707445 343.549847,120.707445 L329.376043,120.707445 C325.164269,120.707445 321.355113,122.211595 318.613014,124.633117 C315.947839,126.98767 314.291853,130.223098 314.291853,133.769986 L314.291853,143.573004 C314.291853,147.117767 315.947839,150.35284 318.613014,152.709519 C321.355113,155.131395 325.164269,156.635191 329.376043,156.635191 L344.310267,156.635191 C345.891446,156.635191 347.174809,157.885992 347.174809,159.429118 C347.174809,160.969765 345.891446,162.223046 344.310267,162.223046 L329.376043,162.223046 C323.718237,162.223046 318.55091,160.158339 314.788684,156.834327 C310.949534,153.44122 308.565238,148.747351 308.565238,143.573004 L308.565238,133.769986 C308.565238,128.593514 310.949534,123.899645 314.788684,120.508309 C318.55091,117.184298 323.718237,115.119945 329.376043,115.119945 L343.549847,115.119945 Z" id="Fill-55" fill="#FEFEFE"></path>
                <g id="Group-59" transform="translate(308.402321, 114.846186)">
                    <mask id="mask-26" fill="white">
                        <use xlink:href="#path-25"></use>
                    </mask>
                    <g id="Clip-58"></g>
                    <polygon id="Fill-57" fill="#FEFEFE" mask="url(#mask-26)" points="-1.78195849 49.3297389 40.7172222 49.3297389 40.7172222 -1.67883681 -1.78195849 -1.67883681"></polygon>
                </g>
                <g id="Group-64" transform="translate(308.402321, 103.861817)" fill="#FEFEFE">
                    <path d="M35.1475257,11.258128 C36.7287051,11.258128 38.0117152,12.5089287 38.0117152,14.0520554 C38.0117152,15.5948278 36.7287051,16.8456286 35.1475257,16.8456286 L20.973722,16.8456286 C16.7619484,16.8456286 12.9527916,18.3497785 10.2106927,20.7713004 C7.54551797,23.125853 5.8895316,26.3612813 5.8895316,29.9078152 L5.8895316,39.7111875 C5.8895316,43.2559497 7.54551797,46.4910236 10.2106927,48.8477023 C12.9527916,51.2695785 16.7619484,52.7733741 20.973722,52.7733741 L35.9079456,52.7733741 C37.489125,52.7733741 38.772488,54.0241748 38.772488,55.5673015 C38.772488,57.1079479 37.489125,58.3608746 35.9079456,58.3608746 L20.973722,58.3608746 C15.3159156,58.3608746 10.1485888,56.2965219 6.3863628,52.9725101 C2.54721262,49.579403 0.162916878,44.885534 0.162916878,39.7111875 L0.162916878,29.9078152 C0.162916878,24.7316969 2.54721262,20.037828 6.3863628,16.6464926 C10.1485888,13.3224807 15.3159156,11.258128 20.973722,11.258128 L35.1475257,11.258128 Z" id="Fill-60"></path>
                    <path d="M56.1417138,55.844462 C56.1417138,57.3875887 54.8625851,58.6383894 53.2775242,58.6383894 C51.698462,58.6383894 50.4172162,57.3875887 50.4172162,55.844462 L50.4172162,42.9466866 L50.415099,3.10425359 C50.415099,1.56112689 51.698462,0.310326146 53.2796414,0.310326146 C54.860468,0.310326146 56.1438309,1.56112689 56.1438309,3.10425359 L56.1438309,16.8308174 L56.1438309,16.1129357 C59.7324483,12.7545534 64.8055607,12.8612081 70.2255374,12.8612081 C75.6479841,12.8612081 83.5874031,12.7545534 87.1735505,16.1129357 C90.7900441,19.4975387 90.0359757,24.7597602 90.0359757,29.9082404 L90.0359757,55.844462 C90.0359757,57.3875887 88.7547299,58.6383894 87.1735505,58.6383894 C85.592724,58.6383894 84.309361,57.3875887 84.309361,55.844462 L84.309361,29.9082404 C84.309361,26.3333597 84.5891814,22.5798945 82.0630347,20.2147117 C79.5097175,17.8254343 73.6818311,17.8059459 69.7784599,17.8059459 C65.879323,17.8059459 60.9357114,18.6623723 58.4441453,21.0711382 C55.9522263,23.4799041 56.1911146,26.2337917 56.1438309,29.7417032 L56.1438309,42.875111 L56.1417138,55.844462 Z" id="Fill-62"></path>
                </g>
                <g id="Group-67" transform="translate(358.508876, 103.861817)">
                    <mask id="mask-28" fill="white">
                        <use xlink:href="#path-27"></use>
                    </mask>
                    <g id="Clip-66"></g>
                    <polygon id="Fill-65" fill="#FEFEFE" mask="url(#mask-28)" points="-1.63622604 60.5911977 41.9395399 60.5911977 41.9395399 -1.64269469 -1.63622604 -1.64269469"></polygon>
                </g>
                <g id="Group-72" transform="translate(358.508876, 103.861817)" fill="#FEFEFE">
                    <path d="M6.03515819,55.844462 C6.03515819,57.3875887 4.75602957,58.6383894 3.17096867,58.6383894 C1.59190644,58.6383894 0.310660645,57.3875887 0.310660645,55.844462 L0.310660645,42.9466866 L0.308543466,3.10425359 C0.308543466,1.56112689 1.59190644,0.310326146 3.17308585,0.310326146 C4.75391239,0.310326146 6.03727537,1.56112689 6.03727537,3.10425359 L6.03727537,16.8308174 L6.03727537,16.1129357 C9.62589276,12.7545534 14.6986522,12.8612081 20.1189818,12.8612081 C25.5414286,12.8612081 33.4808476,12.7545534 37.0669949,16.1129357 C40.6834885,19.4975387 39.9294201,24.7597602 39.9294201,29.9082404 L39.9294201,55.844462 C39.9294201,57.3875887 38.6481743,58.6383894 37.0669949,58.6383894 C35.4861684,58.6383894 34.2028054,57.3875887 34.2028054,55.844462 L34.2028054,29.9082404 C34.2028054,26.3333597 34.4826258,22.5798945 31.956832,20.2147117 C29.403162,17.8254343 23.5752755,17.8059459 19.6715514,17.8059459 C15.7727674,17.8059459 10.8291558,18.6623723 8.3375897,21.0711382 C5.84567072,23.4799041 6.08455902,26.2337917 6.03727537,29.7417032 L6.03727537,42.875111 L6.03515819,55.844462 Z" id="Fill-68"></path>
                    <path d="M135.024358,32.0162471 L135.024358,29.9083112 C135.024358,26.3181942 133.514104,23.0526475 131.086407,20.6853388 C128.659414,18.3155497 125.313214,16.8461246 121.636734,16.8461246 C117.958136,16.8461246 114.614053,18.3155497 112.186708,20.6853388 C109.757246,23.0526475 108.251226,26.3181942 108.251226,29.9083112 L108.251226,32.0162471 L135.024358,32.0162471 Z M140.75062,34.8101746 L140.748856,34.8813958 L140.746386,34.9529714 L140.742151,35.0241926 L140.7358,35.0957682 L140.727331,35.1648634 L140.718863,35.2343129 L140.705807,35.3034082 L140.693104,35.3728577 L140.675813,35.4419529 L140.658523,35.5067962 L140.641233,35.5741197 L140.620061,35.6410889 L140.601006,35.7059321 L140.575247,35.7707754 L140.551605,35.8334926 L140.525846,35.8965641 L140.495853,35.9592813 L140.467977,36.0198725 L140.435866,36.0825897 L140.403756,36.1431809 L140.371292,36.2016461 L140.369528,36.2016461 L140.3353,36.2576309 L140.298603,36.3160961 L140.260141,36.3724353 L140.221678,36.4287745 L140.180746,36.4829877 L140.14052,36.5347205 L140.095353,36.5868077 L140.052657,36.6385405 L140.050187,36.6385405 L140.005373,36.6885017 L139.960207,36.7381085 L139.95809,36.7381085 L139.910806,36.7859437 L139.861758,36.8312985 L139.81024,36.8787793 L139.761192,36.9223624 L139.707557,36.9655913 L139.653922,37.0088201 L139.600639,37.0499229 L139.542417,37.0888997 L139.487018,37.1257504 L139.430912,37.1643729 L139.428795,37.1643729 L139.370926,37.1990977 L139.310939,37.2338225 L139.251305,37.2664212 L139.188848,37.2986657 L139.129214,37.3291384 L139.126744,37.3291384 L139.064993,37.3571309 L139.000419,37.3851233 L138.936198,37.411344 L138.871977,37.4350844 L138.869507,37.4350844 L138.805286,37.4566989 L138.803522,37.4566989 L138.738948,37.4783133 L138.736831,37.4783133 L138.670492,37.4978017 L138.668375,37.4978017 L138.602037,37.515164 L138.533582,37.5325264 L138.531112,37.5325264 L138.464773,37.5477628 L138.462656,37.5477628 L138.394201,37.5605189 L138.392083,37.5605189 L138.323628,37.5715032 L138.321158,37.5715032 L138.252703,37.5821333 L138.250938,37.5821333 L138.180013,37.5885113 L138.177543,37.5885113 L138.109087,37.5952436 L138.104853,37.5952436 L138.03428,37.5994957 L138.032163,37.5994957 L137.961238,37.6016217 L137.957003,37.6016217 L137.888548,37.6037477 L137.884314,37.6037477 L108.251226,37.6037477 L108.251226,39.7116835 C108.251226,43.2996746 109.757246,46.5652212 112.186708,48.9350103 C114.614053,51.302319 117.958136,52.7738702 121.636734,52.7738702 L137.280212,52.7738702 C138.861038,52.7738702 140.144754,54.0246709 140.144754,55.5656716 C140.144754,57.11057 138.861038,58.3613707 137.280212,58.3613707 L121.636734,58.3613707 C116.376957,58.3613707 111.599896,56.2622932 108.137604,52.8844225 C104.673547,49.5083235 102.524964,44.8428013 102.524964,39.7116835 L102.524964,34.8101746 L102.524964,29.9083112 C102.524964,24.7775478 104.673547,20.1116713 108.137604,16.7338006 C111.597426,13.3555756 116.376957,11.2586241 121.636734,11.2586241 C126.894393,11.2586241 131.673924,13.3555756 135.13798,16.7338006 C138.599567,20.1116713 140.75062,24.7775478 140.75062,29.9083112 L140.75062,34.8101746 Z" id="Fill-70"></path>
                </g>
                <g id="Group-75" transform="translate(460.839166, 114.846186)">
                    <mask id="mask-30" fill="white">
                        <use xlink:href="#path-29"></use>
                    </mask>
                    <g id="Clip-74"></g>
                    <polygon id="Fill-73" fill="#FEFEFE" mask="url(#mask-30)" points="-1.75020081 49.3300933 40.3654177 49.3300933 40.3654177 -1.67848248 -1.75020081 -1.67848248"></polygon>
                </g>
                <g id="Group-80" transform="translate(460.839166, 103.861817)" fill="#FEFEFE">
                    <path d="M32.6940688,32.0162471 L32.6940688,29.9083112 C32.6940688,26.3181942 31.1838149,23.0526475 28.7564698,20.6853388 C26.3291248,18.3155497 22.9829243,16.8461246 19.306444,16.8461246 C15.6281994,16.8461246 12.2837632,18.3155497 9.85677107,20.6853388 C7.42730885,23.0526475 5.92093641,26.3181942 5.92093641,29.9083112 L5.92093641,32.0162471 L32.6940688,32.0162471 Z M38.4206835,34.8101746 L38.4185663,34.8813958 L38.4164492,34.9529714 L38.4118619,35.0241926 L38.4055104,35.0957682 L38.3970417,35.1648634 L38.388573,35.2343129 L38.375517,35.3034082 L38.362814,35.3728577 L38.3455237,35.4419529 L38.3285862,35.5067962 L38.311296,35.5741197 L38.2897713,35.6410889 L38.2707167,35.7059321 L38.2449577,35.7707754 L38.2213159,35.8334926 L38.1955569,35.8965641 L38.1655635,35.9592813 L38.1376873,36.0198725 L38.1055768,36.0825897 L38.0734663,36.1431809 L38.0413557,36.2016461 L38.0392385,36.2016461 L38.0050108,36.2576309 L37.9686659,36.3160961 L37.9302038,36.3724353 L37.8913889,36.4287745 L37.8508097,36.4829877 L37.8098775,36.5347205 L37.7650639,36.5868077 L37.7223675,36.6385405 L37.7202503,36.6385405 L37.6750838,36.6885017 L37.6299174,36.7381085 L37.6278002,36.7381085 L37.5808694,36.7859437 L37.5314686,36.8312985 L37.4799506,36.8787793 L37.4309026,36.9223624 L37.3772674,36.9655913 L37.3236322,37.0088201 L37.2703499,37.0499229 L37.2121275,37.0888997 L37.156728,37.1257504 L37.1009756,37.1643729 L37.0988585,37.1643729 L37.0409889,37.1990977 L36.9810022,37.2338225 L36.9210155,37.2664212 L36.8589116,37.2986657 L36.7989249,37.3291384 L36.7968077,37.3291384 L36.7347038,37.3571309 L36.6701298,37.3854776 L36.6059088,37.411344 L36.5416877,37.4350844 L36.5395705,37.4350844 L36.4753494,37.4566989 L36.4732322,37.4566989 L36.4090112,37.4783133 L36.406894,37.4783133 L36.3402029,37.4978017 L36.3380857,37.4978017 L36.2717474,37.515164 L36.203292,37.5325264 L36.2011748,37.5325264 L36.1348366,37.5477628 L36.1327194,37.5477628 L36.0639111,37.5605189 L36.0617939,37.5605189 L35.9933385,37.5715032 L35.9912213,37.5715032 L35.9227659,37.5821333 L35.9206487,37.5821333 L35.8497232,37.5888656 L35.847606,37.5888656 L35.7791506,37.5952436 L35.7745634,37.5952436 L35.7039908,37.5994957 L35.7018736,37.5994957 L35.631301,37.6016217 L35.6270666,37.6016217 L35.5582583,37.6037477 L35.554024,37.6037477 L5.92093641,37.6037477 L5.92093641,39.7116835 C5.92093641,43.2996746 7.42730885,46.5652212 9.85677107,48.9350103 C12.2837632,51.302319 15.6281994,52.7738702 19.306444,52.7738702 L34.9499224,52.7738702 C36.5311018,52.7738702 37.8144648,54.0246709 37.8144648,55.5656716 C37.8144648,57.11057 36.5311018,58.3613707 34.9499224,58.3613707 L19.306444,58.3613707 C14.04702,58.3613707 9.26960692,56.2622932 5.80766737,52.8844225 C2.34325777,49.5083235 0.194674554,44.8428013 0.194674554,39.7116835 L0.194674554,34.8101746 L0.194674554,29.9083112 C0.194674554,24.7775478 2.34325777,20.1116713 5.80766737,16.7338006 C9.26748974,13.3555756 14.04702,11.2586241 19.306444,11.2586241 C24.5637509,11.2586241 29.3432811,13.3555756 32.8076907,16.7338006 C36.2696303,20.1116713 38.4206835,24.7775478 38.4206835,29.9083112 L38.4206835,34.8101746 Z" id="Fill-76"></path>
                    <path d="M74.1539619,55.5665929 C74.1539619,57.1097196 72.8727161,58.3605203 71.2915367,58.3605203 C66.0321127,58.3605203 61.2525824,56.2635688 57.7906429,52.8853438 C54.3287033,49.5071188 52.1797672,44.8437226 52.1797672,39.7126048 L52.1797672,17.1436239 L52.1797672,11.5539973 L52.1797672,3.10560006 C52.1797672,1.56247336 53.4606602,0.311672617 55.0418396,0.311672617 C56.623019,0.311672617 57.906382,1.56247336 57.906382,3.10560006 L57.906382,11.5539973 L71.2682477,11.5539973 C72.8490743,11.5539973 74.1324373,12.804798 74.1324373,14.3500507 C74.1324373,15.8906971 72.8490743,17.1436239 71.2682477,17.1436239 L57.906382,17.1436239 L57.906382,39.7126048 C57.906382,43.3005958 59.4124015,46.5661425 61.8393937,48.9338056 C64.2688559,51.3032403 67.6132921,52.7726654 71.2915367,52.7726654 C72.8727161,52.7726654 74.1539619,54.0234662 74.1539619,55.5665929" id="Fill-78"></path>
                </g>
                <g id="Group-83" transform="translate(512.710037, 103.861817)">
                    <mask id="mask-32" fill="white">
                        <use xlink:href="#path-31"></use>
                    </mask>
                    <g id="Clip-82"></g>
                    <polygon id="Fill-81" fill="#FEFEFE" mask="url(#mask-32)" points="-1.63587318 60.3133994 24.2279311 60.3133994 24.2279311 -1.64127735 -1.63587318 -1.64127735"></polygon>
                </g>
                <g id="Group-88" transform="translate(203.601990, 103.861817)" fill="#FEFEFE">
                    <path d="M331.391138,55.5665929 C331.391138,57.1097196 330.109892,58.3605203 328.529066,58.3605203 C323.269642,58.3605203 318.489759,56.2635688 315.027819,52.8853438 C311.565879,49.5071188 309.416943,44.8437226 309.416943,39.7126048 L309.416943,17.1436239 L309.416943,11.5539973 L309.416943,3.10560006 C309.416943,1.56247336 310.698189,0.311672617 312.279369,0.311672617 C313.860195,0.311672617 315.143558,1.56247336 315.143558,3.10560006 L315.143558,11.5539973 L328.505424,11.5539973 C330.086603,11.5539973 331.369613,12.804798 331.369613,14.3500507 C331.369613,15.8906971 330.086603,17.1436239 328.505424,17.1436239 L315.143558,17.1436239 L315.143558,39.7126048 C315.143558,43.3005958 316.649578,46.5661425 319.076923,48.9338056 C321.506385,51.3032403 324.850468,52.7726654 328.529066,52.7726654 C330.109892,52.7726654 331.391138,54.0234662 331.391138,55.5665929" id="Fill-84"></path>
                    <path d="M5.72118063,56.5861195 C5.30127358,58.068655 3.72891575,58.9385462 2.20984025,58.5292898 C0.690764741,58.1182618 -0.202331683,56.5839935 0.219692546,55.101458 L14.1962458,7.86867057 L14.2177704,7.79319732 C15.0960466,5.0272623 16.5399623,3.02775278 18.2301764,1.80281845 C19.6144582,0.801114847 21.161057,0.305400896 22.7312977,0.307526903 C24.3061255,0.311778917 25.84849,0.811744881 27.2218331,1.79856643 C28.9399233,3.03200479 30.4032465,5.04249868 31.2836398,7.78859097 L31.3072816,7.87752893 L45.2817177,55.101458 C45.7037419,56.5839935 44.8106455,58.1182618 43.29157,58.5292898 C41.7728474,58.9385462 40.2001367,58.068655 39.7802296,56.5861195 L25.8294354,9.44652205 L25.8269653,9.44864806 C25.3322513,7.90339535 24.6229966,6.85385659 23.8431692,6.29329943 C23.4578427,6.01656419 23.0742806,5.8758934 22.7312977,5.87341306 C22.3801989,5.87341306 22.0029883,6.00770583 21.6303649,6.27806305 C20.8695921,6.83011618 20.1755105,7.86229255 19.6829136,9.40967126 L5.72118063,56.5861195 Z" id="Fill-86"></path>
                </g>
                <g id="Group-91" transform="translate(203.601990, 103.861817)">
                    <mask id="mask-34" fill="white">
                        <use xlink:href="#path-33"></use>
                    </mask>
                    <g id="Clip-90"></g>
                    <polygon id="Fill-89" fill="#FEFEFE" mask="url(#mask-34)" points="-1.82994787 60.5834023 47.3309347 60.5834023 47.3309347 -1.64517503 -1.82994787 -1.64517503"></polygon>
                </g>
                <g id="Group-96" transform="translate(203.601990, 103.861817)" fill="#FEFEFE">
                    <path d="M5.72114534,56.5861195 C5.30123829,58.068655 3.72888046,58.9385462 2.20980496,58.5292898 C0.690729454,58.1182618 -0.202366969,56.5839935 0.219657259,55.101458 L14.1962105,7.86867057 L14.2177351,7.79319732 C15.0960113,5.0272623 16.539927,3.02775278 18.2304939,1.80281845 C19.6144229,0.801114847 21.1610217,0.305400896 22.7312624,0.307526903 C24.3060902,0.311778917 25.8484547,0.811744881 27.2217978,1.79856643 C28.939888,3.03200479 30.4032112,5.04249868 31.2836045,7.78859097 L31.3072464,7.87752893 L45.2816824,55.101458 C45.7037066,56.5839935 44.8106102,58.1182618 43.2915347,58.5292898 C41.7724592,58.9385462 40.2001014,58.068655 39.7801943,56.5861195 L25.8294001,9.44652205 L25.8269301,9.44864806 C25.332216,7.90339535 24.6229613,6.85385659 23.8431339,6.29329943 C23.4578074,6.01656419 23.0742453,5.8758934 22.7312624,5.87376739 C22.3801636,5.87376739 22.002953,6.00770583 21.6303296,6.27806305 C20.8695568,6.83011618 20.1754752,7.86229255 19.6828783,9.40967126 L5.72114534,56.5861195 Z" id="Fill-92"></path>
                    <path d="M59.4241166,55.844462 C59.4241166,57.3875887 58.1407536,58.6383894 56.5599271,58.6383894 C54.9808648,58.6383894 53.6975019,57.3875887 53.6975019,55.844462 L53.6975019,29.9061144 C53.6975019,24.7597602 54.9247596,20.0853797 58.5412532,16.7011309 C62.1295177,13.3423943 68.0879635,13.5082229 73.5079402,13.5082229 C78.9282698,13.5082229 84.8323746,13.3423943 88.4206392,16.7011309 C92.0367799,20.0853797 93.3183785,24.7597602 93.3183785,29.9061144 L93.3183785,55.844462 C93.3183785,57.3875887 92.0371327,58.6383894 90.4559533,58.6383894 C88.8751268,58.6383894 87.5917638,57.3875887 87.5917638,55.844462 L87.5917638,29.9061144 C87.5917638,26.3354857 86.9866036,23.0805691 84.4608098,20.7175124 C81.9071398,18.3282349 77.4091943,18.5851274 73.5079402,18.5851274 C69.6088033,18.5851274 65.5900458,18.3282349 63.0363758,20.7175124 C60.510582,23.0805691 59.4241166,26.3354857 59.4241166,29.9061144 L59.4241166,55.844462 Z" id="Fill-94"></path>
                </g>
                <g id="Group-99" transform="translate(257.237176, 117.326527)">
                    <mask id="mask-36" fill="white">
                        <use xlink:href="#path-35"></use>
                    </mask>
                    <g id="Clip-98"></g>
                    <polygon id="Fill-97" fill="#FEFEFE" mask="url(#mask-36)" points="-1.88252446 47.1264871 41.6276089 47.1264871 41.6276089 -1.91057157 -1.88252446 -1.91057157"></polygon>
                </g>
                <g id="Group-104" transform="translate(257.237176, 117.326527)" fill="#FEFEFE">
                    <path d="M5.78893034,42.3797514 C5.78893034,43.9228781 4.50556736,45.1736788 2.92474082,45.1736788 C1.34567859,45.1736788 0.0623156177,43.9228781 0.0623156177,42.3797514 L0.0623156177,16.4414038 C0.0623156177,11.2950496 1.28957337,6.62066906 4.90606694,3.23642036 C8.49433148,-0.122316266 14.4524244,0.0435122753 19.8727539,0.0435122753 C25.2930835,0.0435122753 31.1968355,-0.122316266 34.7854529,3.23642036 C38.4015936,6.62066906 39.6831923,11.2950496 39.6831923,16.4414038 L39.6831923,42.3797514 C39.6831923,43.9228781 38.4019465,45.1736788 36.8207671,45.1736788 C35.2399405,45.1736788 33.9565776,43.9228781 33.9565776,42.3797514 L33.9565776,16.4414038 C33.9565776,12.8707751 33.3514174,9.6158585 30.8256236,7.25280179 C28.2719535,4.86352433 23.774008,5.12041684 19.8727539,5.12041684 C15.9736171,5.12041684 11.9548596,4.86352433 9.40118956,7.25280179 C6.87504286,9.6158585 5.78893034,12.8707751 5.78893034,16.4414038 L5.78893034,42.3797514 Z" id="Fill-100"></path>
                    <path d="M158.067834,42.3673497 C158.067834,43.9104764 156.784471,45.1612771 155.203644,45.1612771 C153.624582,45.1612771 152.341572,43.9104764 152.341572,42.3673497 L152.341572,16.4290021 C152.341572,11.2826479 153.56883,6.60826736 157.184971,3.22401865 C160.773588,-0.134717973 166.731681,0.0311105682 172.151658,0.0311105682 C177.571987,0.0311105682 183.476092,-0.134717973 187.064709,3.22401865 C190.68085,6.60826736 191.962096,11.2826479 191.962096,16.4290021 L191.962096,42.3673497 C191.962096,43.9104764 190.681203,45.1612771 189.100024,45.1612771 C187.518844,45.1612771 186.235834,43.9104764 186.235834,42.3673497 L186.235834,16.4290021 C186.235834,12.8583734 185.630321,9.60345679 183.104527,7.24040009 C180.550857,4.85112262 176.052912,5.10801513 172.151658,5.10801513 C168.252874,5.10801513 164.233763,4.85112262 161.680093,7.24040009 C159.154299,9.60345679 158.067834,12.8583734 158.067834,16.4290021 L158.067834,42.3673497 Z" id="Fill-102"></path>
                </g>
                <g id="Group-107" transform="translate(409.321158, 117.326527)">
                    <mask id="mask-38" fill="white">
                        <use xlink:href="#path-37"></use>
                    </mask>
                    <g id="Clip-106"></g>
                    <polygon id="Fill-105" fill="#FEFEFE" mask="url(#mask-38)" points="-1.68739119 47.1140854 41.8227422 47.1140854 41.8227422 -1.92297327 -1.68739119 -1.92297327"></polygon>
                </g>
                <path d="M415.305151,159.693877 C415.305151,161.237004 414.021788,162.487805 412.440962,162.487805 C410.861899,162.487805 409.578537,161.237004 409.578537,159.693877 L409.578537,133.755529 C409.578537,128.609175 410.805794,123.934795 414.422288,120.550546 C418.010552,117.191809 423.968645,117.357638 429.388975,117.357638 C434.809304,117.357638 440.713409,117.191809 444.301674,120.550546 C447.917815,123.934795 449.199413,128.609175 449.199413,133.755529 L449.199413,159.693877 C449.199413,161.237004 447.918167,162.487805 446.336988,162.487805 C444.756161,162.487805 443.472798,161.237004 443.472798,159.693877 L443.472798,133.755529 C443.472798,130.184901 442.867638,126.929984 440.341844,124.566927 C437.788174,122.17765 433.290229,122.434543 429.388975,122.434543 C425.489838,122.434543 421.47108,122.17765 418.91741,124.566927 C416.391617,126.929984 415.305151,130.184901 415.305151,133.755529 L415.305151,159.693877 Z" id="Fill-108" fill="#FEFEFE"></path>
            </g>
        </g>
    </g>
</svg>