<?xml version="1.0" encoding="UTF-8" standalone="no"?>
<svg width="26px" height="26px" viewBox="0 0 26 26" version="1.1" xmlns="http://www.w3.org/2000/svg" xmlns:xlink="http://www.w3.org/1999/xlink">
    <!-- Generator: Sketch 44.1 (41455) - http://www.bohemiancoding.com/sketch -->
    <title>Group 3</title>
    <desc>Created with Sketch.</desc>
    <defs>
        <path d="M0.0291263473,12.9362315 C0.056606176,5.79937688 5.83225297,0.0224078855 12.9530487,0.0224078855 C20.0905936,0.0224078855 25.8768008,5.82701707 25.8768008,12.9873602 C25.8768008,13.9107471 25.7806214,14.8114986 25.597574,15.6804013 C17.6218376,12.9178048 8.52839889,12.7979738 0.308012542,15.6792638 C0.128598785,14.826968 0.0326464907,13.9436196 0.0291263473,13.0385457 L0.0291263473,12.9362315 Z M10.3272489,5.06395463 L7.92395621,11.6869066 C8.74869173,11.5657107 9.57320015,11.4747142 10.3976518,11.4134053 L12.4313294,5.80859028 L12.4401298,5.79073222 C12.5325052,5.52030203 12.6536095,5.34268825 12.7820947,5.25334107 C12.8360324,5.21569128 12.8886642,5.19732136 12.934426,5.19862944 C12.9856952,5.19976689 13.0478655,5.22587151 13.1155431,5.27643143 C13.2777536,5.39762738 13.4282113,5.63046465 13.538301,5.98455474 L13.5559017,6.03266913 L15.5103761,11.418922 C16.3353387,11.4818802 17.1604149,11.5742416 17.9851504,11.6965181 L15.6703723,5.316868 C15.4108469,4.48504634 14.9678198,3.87099066 14.443943,3.47925077 C13.9997236,3.14722733 13.4974787,2.97569895 12.9870579,2.96307318 C12.4713569,2.95010618 11.9638885,3.10076225 11.5147863,3.41219773 C11.0062391,3.76515036 10.5796205,4.31909149 10.3250346,5.0633859 L10.3272489,5.06395463 Z M8.74267342,15.9736944 C10.1292125,15.8046115 11.5153541,15.7202691 12.9018931,15.720326 C14.3234633,15.720326 15.7454876,15.8089338 17.1672281,15.9855239 L20.0188281,23.8440945 C18.0015588,25.1681503 15.5926453,25.9424166 13.004545,25.9525969 L12.9016092,25.9525969 C10.3132251,25.9424166 7.90453865,25.1679228 5.88726941,23.8440945 L8.74267342,15.9736944 Z M0.957365436,17.8206387 C2.712384,17.2012939 4.46762966,16.7194106 6.22321599,16.374477 L4.04402016,22.3797903 C2.71403052,21.1098206 1.65361572,19.5584442 0.957365436,17.8206387 Z M21.8617934,22.3797903 L19.6883888,16.3904014 C21.4409092,16.7361881 23.1937135,17.2152846 24.9465178,17.8260985 C24.2503243,19.5616859 23.1904204,21.1111855 21.8617934,22.3797903 Z" id="path-1"></path>
    </defs>
    <g id="Page-1" stroke="none" stroke-width="1" fill="none" fill-rule="evenodd">
        <g id="-" transform="translate(-111.000000, -324.000000)">
            <g id="Page-1" transform="translate(111.000000, 324.000000)">
                <g id="Group-3" transform="translate(0.000000, 0.009117)">
                    <mask id="mask-2" fill="white">
                        <use xlink:href="#path-1"></use>
                    </mask>
                    <g id="Clip-2"></g>
                    <polygon id="Fill-1" fill="#FEFEFE" mask="url(#mask-2)" points="-0.283882528 26.2661366 26.1896961 26.2661366 26.1896961 -0.29107502 -0.283882528 -0.29107502"></polygon>
                </g>
            </g>
        </g>
    </g>
</svg>