<?xml version="1.0" encoding="UTF-8" standalone="no"?>
<svg width="79px" height="14px" viewBox="0 0 79 14" version="1.1" xmlns="http://www.w3.org/2000/svg" xmlns:xlink="http://www.w3.org/1999/xlink">
    <!-- Generator: Sketch 39.1 (31720) - http://www.bohemiancoding.com/sketch -->
    <title>Group 3</title>
    <desc>Created with Sketch.</desc>
    <defs></defs>
    <g id="Page-1" stroke="none" stroke-width="1" fill="none" fill-rule="evenodd">
        <g id="tubiao" transform="translate(-682.000000, -341.000000)">
            <g id="Group-3" transform="translate(682.000000, 341.000000)">
                <g id="Group" fill="#E2003B">
                    <path d="M15.6581018,4.20571175 C15.3025173,3.81830599 13.0991446,1.33990244 12.2576293,0.475689579 C11.9979796,0.208478936 11.8050672,0.0237161863 11.4077719,0.00881596452 C11.0104766,-0.00509090909 4.60682688,0.00881596452 4.60682688,0.00881596452 C4.38784521,0.00881596452 4.10629735,0.0574900222 3.74445621,0.460789357 C2.9008554,1.40248337 0.997800407,3.47858093 0.356496945,4.20571175 C-0.0783380855,4.68549889 -0.133604888,5.36792905 0.356496945,6.07022616 C1.3992668,7.22747672 4.27209776,10.3664568 7.15744196,13.5302705 C7.56725051,13.9802572 7.82481466,13.9971441 8.00729939,13.9971441 C8.18561303,13.9971441 8.43900611,13.9891973 8.85715682,13.5302705 C11.7143462,10.3962572 14.4578737,7.40031929 15.6570591,6.07022616 C16.0626965,5.6043459 16.1388187,4.7580133 15.6581018,4.20571175 L15.6581018,4.20571175 Z M14.8082444,5.6043459 C13.8499389,6.66822173 10.9708513,9.71581375 8.69031365,12.2260044 C8.35662729,12.5925499 8.15432994,12.59851 8.01251324,12.59851 C7.86756823,12.59851 7.66214257,12.5846031 7.33471283,12.2260044 C5.03227699,9.69296674 2.03952749,6.53014634 1.20739715,5.6043459 C0.97485947,5.37786253 0.98007332,4.9974102 1.20739715,4.67159202 C1.71835438,4.08949002 3.50566191,2.15742794 4.18137678,1.40844346 C4.68294908,0.851175166 5.12299796,0.941569845 5.2981833,0.941569845 L10.7247576,0.941569845 C11.3764888,0.941569845 11.5308187,1.07865188 11.8321792,1.40844346 C12.4828676,2.12166741 14.5256538,4.36166741 14.8082444,4.67159202 C15.0585092,5.01231042 14.9834297,5.33415521 14.8082444,5.6043459 L14.8082444,5.6043459 Z" id="Shape"></path>
                    <polygon id="V" points="6.01304735 3.25408814 8.05129837 8.11957802 10.1181899 3.25408814 11.3354124 3.25408814 8.02743126 10.8024182 4.79582485 3.25408814"></polygon>
                </g>
                <path d="M56.3636364,7.78590909 C56.3610909,7.78686364 56.3588636,7.78813636 56.3566364,7.78845455 L55.7053182,7.95168182 C55.481,8.00736364 55.3047273,8.18077273 55.2449091,8.40381818 C55.1224091,8.86168182 54.9391364,9.30204545 54.7008182,9.71313636 C54.5843636,9.91359091 54.5862727,10.1611364 54.7055909,10.36 L55.0562273,10.9438636 L53.9441818,12.0555909 C53.9419545,12.0546364 53.9397273,12.0533636 53.9375,12.0520909 L53.3561818,11.7036818 C53.2553182,11.6432273 53.1423636,11.613 53.0287727,11.613 C52.9193182,11.613 52.8092273,11.6413182 52.7105909,11.6982727 C52.2995,11.9356364 51.8607273,12.1176364 51.4054091,12.2395 C51.1820455,12.2993182 51.0083182,12.4752727 50.9523182,12.6999091 L50.7881364,13.3566364 C50.7875,13.3591818 50.7868636,13.3610909 50.7859091,13.3639545 L49.2134545,13.3639545 L49.0476818,12.6995909 C48.9913636,12.4752727 48.8179545,12.2993182 48.5945909,12.2395 C48.1392727,12.1176364 47.7005,11.9356364 47.2887727,11.6982727 C47.1904545,11.6413182 47.0806818,11.613 46.9712273,11.613 C46.8573182,11.613 46.7443636,11.6432273 46.6435,11.7036818 L46.0625,12.0520909 C46.0602727,12.0533636 46.0580455,12.0546364 46.0555,12.0555909 L44.9440909,10.9438636 L45.2944091,10.3596818 C45.4137273,10.1611364 45.4156364,9.91359091 45.2995,9.71313636 C45.0608636,9.30172727 44.8772727,8.86136364 44.7550909,8.40381818 C44.6952727,8.18077273 44.5186818,8.00736364 44.2946818,7.95168182 L43.6436818,7.78845455 C43.6414545,7.78813636 43.6389091,7.78686364 43.6363636,7.78590909 L43.6363636,6.21377273 L44.2946818,6.04927273 C44.5186818,5.99295455 44.6952727,5.81986364 44.7550909,5.59618182 C44.8772727,5.13895455 45.0608636,4.69859091 45.2995,4.28718182 C45.4156364,4.08672727 45.4137273,3.83918182 45.2944091,3.64063636 L44.9479091,3.0625 C44.9469545,3.06027273 44.9456818,3.05836364 44.9444091,3.05613636 L46.0561364,1.94440909 L46.6435,2.29663636 C46.7443636,2.35709091 46.8573182,2.387 46.9712273,2.387 C47.0806818,2.387 47.1904545,2.35868182 47.2894091,2.30204545 C47.6998636,2.06468182 48.1392727,1.88236364 48.5945909,1.76081818 C48.8179545,1.701 48.9913636,1.52472727 49.0476818,1.30040909 L49.2134545,0.636363636 L50.7859091,0.636363636 C50.7868636,0.638909091 50.7875,0.641136364 50.7881364,0.643681818 L50.9523182,1.30040909 C51.0083182,1.52472727 51.1820455,1.701 51.4054091,1.76081818 C51.8607273,1.88236364 52.2995,2.06468182 52.7105909,2.30204545 C52.8092273,2.35868182 52.919,2.387 53.0287727,2.387 C53.1423636,2.387 53.2553182,2.35709091 53.3561818,2.29663636 L53.9435455,1.94440909 L55.0555909,3.05613636 C55.0543182,3.05836364 55.0533636,3.06027273 55.0520909,3.06281818 L54.7055909,3.64031818 C54.5862727,3.83918182 54.5843636,4.08672727 54.7008182,4.28718182 C54.9391364,4.69827273 55.1224091,5.13863636 55.2449091,5.59618182 C55.3047273,5.81986364 55.481,5.99295455 55.7053182,6.04927273 L56.3636364,6.21377273 L56.3636364,7.78590909 Z M56.5332273,5.60031818 L55.8596364,5.43168182 C55.7205909,4.91304545 55.5147273,4.42177273 55.2512727,3.96772727 L55.6098636,3.3705 C55.7199545,3.157 55.7918636,2.89259091 55.6098636,2.71059091 L54.2897273,1.39045455 C54.2079545,1.30836364 54.1067727,1.27590909 54.0020909,1.27590909 C53.8745,1.27590909 53.7411818,1.32427273 53.6298182,1.39045455 L53.0287727,1.75095455 C52.5763182,1.48940909 52.0869545,1.2845 51.5699091,1.14609091 L51.4,0.466772727 C51.3271364,0.238 51.1909545,0 50.9335455,0 L49.0664545,0 C48.8090455,0 48.6582273,0.238 48.6,0.466772727 L48.4300909,1.14609091 C47.9130455,1.2845 47.4236818,1.48940909 46.9712273,1.75095455 L46.3701818,1.39045455 C46.2588182,1.32427273 46.1255,1.27590909 45.9979091,1.27590909 C45.8932273,1.27590909 45.7920455,1.30836364 45.7102727,1.39045455 L44.3901364,2.71059091 C44.2081364,2.89259091 44.2800455,3.157 44.3901364,3.3705 L44.7487273,3.96772727 C44.4852727,4.42177273 44.2790909,4.91304545 44.1403636,5.43168182 L43.4667727,5.60031818 C43.238,5.65822727 43,5.80904545 43,6.06709091 L43,7.93354545 C43,8.19127273 43.238,8.32713636 43.4667727,8.40031818 L44.1403636,8.56863636 C44.2790909,9.08759091 44.4852727,9.57854545 44.7487273,10.0325909 L44.3901364,10.6298182 C44.2698636,10.8328182 44.2081364,11.1074091 44.3901364,11.2900455 L45.7102727,12.6098636 C45.7904545,12.6900455 45.8868636,12.7212273 45.9880455,12.7212273 C46.1159545,12.7212273 46.2508636,12.6712727 46.3701818,12.6098636 L46.9712273,12.2493636 C47.4236818,12.5109091 47.9130455,12.7158182 48.4300909,12.8542273 L48.6,13.5332273 C48.6582273,13.762 48.8090455,14 49.0664545,14 L50.9335455,14 C51.1909545,14 51.3271364,13.762 51.4,13.5332273 L51.5699091,12.8542273 C52.0869545,12.7158182 52.5763182,12.5109091 53.0287727,12.2493636 L53.6298182,12.6098636 C53.7491364,12.6712727 53.8843636,12.7212273 54.0119545,12.7212273 C54.1131364,12.7212273 54.2092273,12.6900455 54.2897273,12.6098636 L55.6098636,11.2900455 C55.7918636,11.1074091 55.7301364,10.8328182 55.6098636,10.6298182 L55.2512727,10.0325909 C55.5147273,9.57854545 55.7205909,9.08759091 55.8596364,8.56863636 L56.5332273,8.40031818 C56.762,8.32713636 57,8.19127273 57,7.93354545 L57,6.06709091 C57,5.80904545 56.762,5.65822727 56.5332273,5.60031818 L56.5332273,5.60031818 Z M53.1818182,7 C53.1818182,8.65009091 51.9259545,10.0065 50.3181818,10.1659091 L50.3181818,8.22786364 C50.8664091,8.08595455 51.2727273,7.59277273 51.2727273,7 C51.2727273,6.88990909 51.2539545,6.78459091 51.2275455,6.68213636 L52.9218636,5.74095455 C53.0885909,6.12722727 53.1818182,6.55263636 53.1818182,7 L53.1818182,7 Z M49.3636364,7 C49.3636364,6.64872727 49.6487273,6.36363636 50,6.36363636 C50.3512727,6.36363636 50.6363636,6.64872727 50.6363636,7 C50.6363636,7.35159091 50.3512727,7.63636364 50,7.63636364 C49.6487273,7.63636364 49.3636364,7.35159091 49.3636364,7 L49.3636364,7 Z M49.6818182,10.1659091 C48.0740455,10.0065 46.8181818,8.65009091 46.8181818,7 C46.8181818,6.55263636 46.9114091,6.12722727 47.0781364,5.74095455 L48.7724545,6.68213636 C48.7460455,6.78459091 48.7272727,6.88990909 48.7272727,7 C48.7272727,7.59277273 49.1335909,8.08595455 49.6818182,8.22786364 L49.6818182,10.1659091 Z M50,3.81818182 C51.0821364,3.81818182 52.0366818,4.35972727 52.6116364,5.18509091 L50.9205,6.125 C50.6885455,5.88127273 50.3630455,5.72727273 50,5.72727273 C49.6369545,5.72727273 49.3114545,5.88127273 49.0795,6.125 L47.3883636,5.18509091 C47.9633182,4.35972727 48.9178636,3.81818182 50,3.81818182 L50,3.81818182 Z M50,3.18181818 C47.8914091,3.18181818 46.1818182,4.89140909 46.1818182,7 C46.1818182,9.10890909 47.8914091,10.8181818 50,10.8181818 C52.1085909,10.8181818 53.8181818,9.10890909 53.8181818,7 C53.8181818,4.89140909 52.1085909,3.18181818 50,3.18181818 L50,3.18181818 Z" id="Fill-87" fill="#8B9196"></path>
                <path d="M64.7006516,12.8718057 C64.8676024,11.7143252 65.8980918,11.2422574 66.8913306,10.8900691 C67.557102,10.7183773 68.749124,10.018403 68.749124,8.51042748 C68.749124,7.21986049 68.2167778,6.59100116 67.9306248,6.25303583 C67.8950673,6.21104415 67.862219,6.17379346 67.8368208,6.13823599 C67.8286934,6.12773807 67.8205659,6.11724014 67.8120999,6.10640358 C67.7880563,6.06068683 67.6539538,5.75624712 67.8303866,5.02477908 C67.8659441,4.87848547 67.8513824,4.7237258 67.7890722,4.58657554 C67.6211055,4.21576188 67.1751131,3.23098916 67.4731186,2.50121433 C67.876442,1.51237791 68.2357418,1.31664248 68.8872902,1.02981218 C68.9197999,1.01558919 68.950955,0.998657063 68.9807555,0.979693077 C69.1446586,0.874036582 69.6790366,0.677623867 70.2286536,0.677623867 C70.5307228,0.677623867 70.7877525,0.735193111 70.9929699,0.848977028 C71.2367926,0.984095431 71.4674082,1.23435232 71.8006326,2.01526218 C72.2720231,3.12025303 72.1538368,4.06303406 71.8273853,4.50767181 C71.7091991,4.66818841 71.6682233,4.87340583 71.714956,5.0671094 C71.8791977,5.7481197 71.7583022,6.0230975 71.732904,6.07118475 C71.7129241,6.09218059 71.6939601,6.11486965 71.677028,6.13823599 C71.6512912,6.17379346 71.6187815,6.21104415 71.5828854,6.25303583 C71.297071,6.59100116 70.7643862,7.21986049 70.7643862,8.51042748 C70.7643862,10.0187417 71.9570855,10.7183773 72.6228568,10.8900691 C73.606275,11.2378551 74.6452305,11.707891 74.8128586,12.8718057 L64.7006516,12.8718057 Z M72.8172377,10.2405526 C72.8172377,10.2405526 71.4416714,9.91918075 71.4416714,8.51042748 C71.4416714,7.27302738 72.0068659,6.83719434 72.2252904,6.53614106 C72.2252904,6.53614106 72.6733146,6.15110441 72.3732772,4.90828602 C72.8734524,4.22761437 72.9672564,3.02407853 72.423735,1.74942773 C72.0823832,0.949553884 71.7806527,0.511350344 71.3214533,0.2566911 C70.9838266,0.0694217355 70.6011604,0 70.2286536,0 C69.5347749,0 68.8771309,0.24111354 68.6146829,0.409757561 C67.8466414,0.747722887 67.3302114,1.05893545 66.8459525,2.24520052 C66.4531271,3.20796146 66.9258722,4.32277294 67.1720653,4.86595569 C66.872028,6.10877408 67.2885584,6.53614106 67.2885584,6.53614106 C67.5066442,6.83719434 68.0718388,7.27302738 68.0718388,8.51042748 C68.0718388,9.91918075 66.6966111,10.2405526 66.6966111,10.2405526 C65.8229132,10.5487174 64,11.1785926 64,13.2104483 C64,13.2104483 64,13.5490909 64.3386426,13.5490909 L75.1752062,13.5490909 C75.5138488,13.5490909 75.5138488,13.2104483 75.5138488,13.2104483 C75.5138488,11.1785926 73.6909356,10.5487174 72.8172377,10.2405526 L72.8172377,10.2405526 Z M76.4413909,9.89445984 C76.4413909,9.89445984 75.1873973,9.60492041 75.1873973,8.33670382 C75.1873973,7.22290827 75.787472,6.83076013 75.9862553,6.56018468 C75.9862553,6.56018468 76.3949969,6.21341465 76.1217123,5.0948781 C76.5771866,4.48227361 76.6841977,3.3989559 76.1884249,2.25197337 C75.877551,1.53201918 75.496578,1.13783918 75.0780158,0.908578128 C74.769851,0.739934107 74.4210491,0.677962509 74.0813906,0.677962509 C73.5751199,0.677962509 73.0935701,0.816128695 72.7972578,0.949553884 C72.8836116,1.11718198 72.9659018,1.29463071 73.0468374,1.48393193 C73.0583512,1.51102334 73.06614,1.53845339 73.0773152,1.5655448 C73.2689869,1.48020686 73.6533463,1.35490909 74.0813906,1.35490909 C74.3479023,1.35490909 74.5737769,1.40468955 74.7529189,1.50289591 C74.9632159,1.6180344 75.276799,1.84865002 75.5666771,2.5208556 C75.9794824,3.47548913 75.8697622,4.29872932 75.5781909,4.69087746 C75.4579728,4.85274863 75.4159811,5.05999791 75.4637297,5.25607198 C75.60088,5.8165255 75.5124942,6.05188212 75.4901438,6.09895344 C75.4725344,6.11825607 75.4559409,6.13823599 75.4403634,6.15957047 C75.4268177,6.17751853 75.3797463,6.22831492 75.3455434,6.26488832 C75.0532949,6.57881002 74.5101121,7.16262989 74.5101121,8.33670382 C74.5101121,9.73529781 75.6245849,10.3841371 76.2490419,10.544315 C77.1413652,10.8558662 78.0113381,11.2442893 78.1898027,12.1941818 L76.0472109,12.1941818 C76.1085052,12.4031243 76.1515128,12.627983 76.17217,12.871467 L78.5914329,12.871467 C78.9002749,12.871467 78.9002749,12.5670273 78.9002749,12.5670273 C78.9002749,10.7380186 77.238217,10.1711309 76.4413909,9.89445984 L76.4413909,9.89445984 Z" id="Fill-111" fill="#8B9196"></path>
                <path d="M30.313176,9.48628885 L25.8823412,9.48628885 L24.7293857,12 L23.046875,12 L28.1681425,1 L33.1084228,12 L31.3990993,12 L30.313176,9.48628885 Z M29.6763692,8.01828154 L28.1413296,4.49908592 L26.5325545,8.01828154 L29.6763692,8.01828154 Z" id="A" fill="#E2003B"></path>
            </g>
        </g>
    </g>
</svg>