<?xml version="1.0" encoding="UTF-8" standalone="no"?>
<svg width="28px" height="28px" viewBox="0 0 28 28" version="1.1" xmlns="http://www.w3.org/2000/svg" xmlns:xlink="http://www.w3.org/1999/xlink">
    <!-- Generator: Sketch 39.1 (31720) - http://www.bohemiancoding.com/sketch -->
    <title>Group</title>
    <desc>Created with Sketch.</desc>
    <defs>
        <rect id="path-1" x="0" y="0" width="28" height="28" rx="2"></rect>
        <mask id="mask-2" maskContentUnits="userSpaceOnUse" maskUnits="objectBoundingBox" x="0" y="0" width="28" height="28" fill="white">
            <use xlink:href="#path-1"></use>
        </mask>
    </defs>
    <g id="Page-1" stroke="none" stroke-width="1" fill="none" fill-rule="evenodd">
        <g id="iPhone-6" transform="translate(-318.000000, -139.000000)">
            <g id="Group" transform="translate(318.000000, 139.000000)">
                <use id="Rectangle-2" stroke="#CDCDCD" mask="url(#mask-2)" stroke-width="2" fill="#FFFFFF" xlink:href="#path-1"></use>
                <path d="M19.3306973,11.0418756 C18.2526205,9.18969409 16.2440068,8.04651163 14.037379,8.04651163 C12.5684509,8.04651163 11.1512911,8.56226134 10.0447417,9.498391 C9.04043484,10.3479349 8.35450362,11.4898625 8.08789639,12.744728 C6.50896039,13.1864407 5.39852834,14.5931449 5.39852834,16.2144311 C5.39852834,18.0113985 6.77556761,19.5197468 8.56028299,19.7845234 L8.56028299,19.8271889 L18.9929085,19.8271889 C21.4959103,19.8271889 23.5304082,17.8545403 23.5304082,15.4276304 C23.5317024,13.1124036 21.6745113,11.2100275 19.3306973,11.0418756 L19.3306973,11.0418756 L19.3306973,11.0418756 Z M18.9942027,18.818277 L9.12326427,18.818277 L9.0883206,18.8157673 C7.6284519,18.7981992 6.44036727,17.633684 6.44036727,16.215686 C6.44036727,14.9595656 7.36313888,13.8841459 8.63534716,13.6570152 L9.00290275,13.5905074 L9.05725956,13.2316158 C9.22809526,12.082159 9.82213758,11.0268172 10.7293787,10.2575846 C11.6456792,9.48207775 12.8195276,9.05542348 14.037379,9.05542348 C15.6887908,9.05542348 17.2056047,9.82842062 18.1426126,11.1083834 C17.0360632,11.3166911 16.0317564,11.9177717 15.3497078,12.8074713 C15.1775779,13.0308374 15.2254637,13.3470635 15.4584214,13.5139606 C15.6887908,13.6796028 16.0149317,13.6331728 16.1870616,13.4098067 C16.8548739,12.5389301 17.8785938,12.0382388 18.9942027,12.0382388 C20.9212812,12.0382388 22.4898635,13.5578809 22.4898635,15.4276304 C22.4898635,17.29738 20.9212812,18.818277 18.9942027,18.818277 L18.9942027,18.818277 Z" id="Shape" fill="#1AB394"></path>
            </g>
        </g>
    </g>
</svg>