<?xml version="1.0" encoding="UTF-8" standalone="no"?>
<svg width="158px" height="48px" viewBox="0 0 158 48" version="1.1" xmlns="http://www.w3.org/2000/svg" xmlns:xlink="http://www.w3.org/1999/xlink">
    <!-- Generator: Sketch 3.8.3 (29802) - http://www.bohemiancoding.com/sketch -->
    <title>status-icons(1)</title>
    <desc>Created with Sketch.</desc>
    <defs></defs>
    <g id="Page-1" stroke="none" stroke-width="1" fill="none" fill-rule="evenodd">
        <g id="status-icons(1)">
            <path d="M1.7815,9.0209 C1.5386,8.393 1.4,7.714 1.4,7 C1.4,3.9074 3.9074,1.4 7,1.4 C7.7133,1.4 8.393,1.5386 9.0209,1.7822 L10.4468,0.9121 C9.4283,0.3346 8.2544,1.77635684e-15 7,1.77635684e-15 C3.1339,1.77635684e-15 -8.8817842e-16,3.1346 -8.8817842e-16,7 C-8.8817842e-16,8.2544 0.3339,9.429 0.9114,10.4468 L1.7815,9.0209 L1.7815,9.0209 L1.7815,9.0209 L1.7815,9.0209 L1.7815,9.0209 Z M6.5051,6.5051 C6.7788,6.2314 7.2212,6.2314 7.4949,6.5051 C7.7686,6.7788 7.7686,7.2212 7.4949,7.4949 C7.2212,7.7686 6.7788,7.7686 6.5051,7.4949 C6.2314,7.2212 6.2314,6.7788 6.5051,6.5051 L6.5051,6.5051 L6.5051,6.5051 L6.5051,6.5051 L6.5051,6.5051 L6.5051,6.5051 Z M0.3605,13.6395 L8.4854,8.4854 L13.6395,0.3605 L5.5153,5.5153 L0.3605,13.6395 L0.3605,13.6395 L0.3605,13.6395 L0.3605,13.6395 L0.3605,13.6395 Z M12.6,7 C12.6,10.0926 10.0926,12.6 7,12.6 C6.2867,12.6 5.607,12.4614 4.9791,12.2185 L3.5532,13.0886 C4.5717,13.6661 5.7456,14 7,14 C10.8661,14 14,10.8661 14,7 C14,5.7463 13.6661,4.5717 13.0886,3.5532 L12.2185,4.9791 C12.4614,5.607 12.6,6.2867 12.6,7 L12.6,7 L12.6,7 L12.6,7 Z" id="Page-1-Copy-5" fill="#10C953" transform="translate(7.000000, 7.000000) rotate(180.000000) translate(-7.000000, -7.000000) "></path>
            <path d="M25.7815,9.0209 C25.5386,8.393 25.4,7.714 25.4,7 C25.4,3.9074 27.9074,1.4 31,1.4 C31.7133,1.4 32.393,1.5386 33.0209,1.7822 L34.4468,0.9121 C33.4283,0.3346 32.2544,8.8817842e-16 31,8.8817842e-16 C27.1339,8.8817842e-16 24,3.1346 24,7 C24,8.2544 24.3339,9.429 24.9114,10.4468 L25.7815,9.0209 L25.7815,9.0209 L25.7815,9.0209 L25.7815,9.0209 L25.7815,9.0209 Z M30.5051,6.5051 C30.7788,6.2314 31.2212,6.2314 31.4949,6.5051 C31.7686,6.7788 31.7686,7.2212 31.4949,7.4949 C31.2212,7.7686 30.7788,7.7686 30.5051,7.4949 C30.2314,7.2212 30.2314,6.7788 30.5051,6.5051 L30.5051,6.5051 L30.5051,6.5051 L30.5051,6.5051 L30.5051,6.5051 L30.5051,6.5051 Z M24.3605,13.6395 L32.4854,8.4854 L37.6395,0.3605 L29.5153,5.5153 L24.3605,13.6395 L24.3605,13.6395 L24.3605,13.6395 L24.3605,13.6395 L24.3605,13.6395 Z M36.6,7 C36.6,10.0926 34.0926,12.6 31,12.6 C30.2867,12.6 29.607,12.4614 28.9791,12.2185 L27.5532,13.0886 C28.5717,13.6661 29.7456,14 31,14 C34.8661,14 38,10.8661 38,7 C38,5.7463 37.6661,4.5717 37.0886,3.5532 L36.2185,4.9791 C36.4614,5.607 36.6,6.2867 36.6,7 L36.6,7 L36.6,7 L36.6,7 Z" id="Page-1-Copy-5" fill="#E2003B" transform="translate(31.000000, 7.000000) rotate(180.000000) translate(-31.000000, -7.000000) "></path>
            <path d="M49.7815,9.0209 C49.5386,8.393 49.4,7.714 49.4,7 C49.4,3.9074 51.9074,1.4 55,1.4 C55.7133,1.4 56.393,1.5386 57.0209,1.7822 L58.4468,0.9121 C57.4283,0.3346 56.2544,-2.66453526e-15 55,-2.66453526e-15 C51.1339,-2.66453526e-15 48,3.1346 48,7 C48,8.2544 48.3339,9.429 48.9114,10.4468 L49.7815,9.0209 L49.7815,9.0209 L49.7815,9.0209 L49.7815,9.0209 L49.7815,9.0209 Z M54.5051,6.5051 C54.7788,6.2314 55.2212,6.2314 55.4949,6.5051 C55.7686,6.7788 55.7686,7.2212 55.4949,7.4949 C55.2212,7.7686 54.7788,7.7686 54.5051,7.4949 C54.2314,7.2212 54.2314,6.7788 54.5051,6.5051 L54.5051,6.5051 L54.5051,6.5051 L54.5051,6.5051 L54.5051,6.5051 L54.5051,6.5051 Z M48.3605,13.6395 L56.4854,8.4854 L61.6395,0.3605 L53.5153,5.5153 L48.3605,13.6395 L48.3605,13.6395 L48.3605,13.6395 L48.3605,13.6395 L48.3605,13.6395 Z M60.6,7 C60.6,10.0926 58.0926,12.6 55,12.6 C54.2867,12.6 53.607,12.4614 52.9791,12.2185 L51.5532,13.0886 C52.5717,13.6661 53.7456,14 55,14 C58.8661,14 62,10.8661 62,7 C62,5.7463 61.6661,4.5717 61.0886,3.5532 L60.2185,4.9791 C60.4614,5.607 60.6,6.2867 60.6,7 L60.6,7 L60.6,7 L60.6,7 Z" id="Page-1-Copy-5-Copy" fill="#FF7800" transform="translate(55.000000, 7.000000) rotate(180.000000) translate(-55.000000, -7.000000) "></path>
            <path d="M73.7815,9.0209 C73.5386,8.393 73.4,7.714 73.4,7 C73.4,3.9074 75.9074,1.4 79,1.4 C79.7133,1.4 80.393,1.5386 81.0209,1.7822 L82.4468,0.9121 C81.4283,0.3346 80.2544,-3.55271368e-15 79,-3.55271368e-15 C75.1339,-3.55271368e-15 72,3.1346 72,7 C72,8.2544 72.3339,9.429 72.9114,10.4468 L73.7815,9.0209 L73.7815,9.0209 L73.7815,9.0209 L73.7815,9.0209 L73.7815,9.0209 Z M78.5051,6.5051 C78.7788,6.2314 79.2212,6.2314 79.4949,6.5051 C79.7686,6.7788 79.7686,7.2212 79.4949,7.4949 C79.2212,7.7686 78.7788,7.7686 78.5051,7.4949 C78.2314,7.2212 78.2314,6.7788 78.5051,6.5051 L78.5051,6.5051 L78.5051,6.5051 L78.5051,6.5051 L78.5051,6.5051 L78.5051,6.5051 Z M72.3605,13.6395 L80.4854,8.4854 L85.6395,0.3605 L77.5153,5.5153 L72.3605,13.6395 L72.3605,13.6395 L72.3605,13.6395 L72.3605,13.6395 L72.3605,13.6395 Z M84.6,7 C84.6,10.0926 82.0926,12.6 79,12.6 C78.2867,12.6 77.607,12.4614 76.9791,12.2185 L75.5532,13.0886 C76.5717,13.6661 77.7456,14 79,14 C82.8661,14 86,10.8661 86,7 C86,5.7463 85.6661,4.5717 85.0886,3.5532 L84.2185,4.9791 C84.4614,5.607 84.6,6.2867 84.6,7 L84.6,7 L84.6,7 L84.6,7 Z" id="Page-1-Copy-5-Copy-2" fill="#2B90E8" transform="translate(79.000000, 7.000000) rotate(180.000000) translate(-79.000000, -7.000000) "></path>
            <path d="M145.7815,9.0209 C145.5386,8.393 145.4,7.714 145.4,7 C145.4,3.9074 147.9074,1.4 151,1.4 C151.7133,1.4 152.393,1.5386 153.0209,1.7822 L154.4468,0.9121 C153.4283,0.3346 152.2544,1.77635684e-15 151,1.77635684e-15 C147.1339,1.77635684e-15 144,3.1346 144,7 C144,8.2544 144.3339,9.429 144.9114,10.4468 L145.7815,9.0209 L145.7815,9.0209 L145.7815,9.0209 L145.7815,9.0209 L145.7815,9.0209 Z M150.5051,6.5051 C150.7788,6.2314 151.2212,6.2314 151.4949,6.5051 C151.7686,6.7788 151.7686,7.2212 151.4949,7.4949 C151.2212,7.7686 150.7788,7.7686 150.5051,7.4949 C150.2314,7.2212 150.2314,6.7788 150.5051,6.5051 L150.5051,6.5051 L150.5051,6.5051 L150.5051,6.5051 L150.5051,6.5051 L150.5051,6.5051 Z M144.3605,13.6395 L152.4854,8.4854 L157.6395,0.3605 L149.5153,5.5153 L144.3605,13.6395 L144.3605,13.6395 L144.3605,13.6395 L144.3605,13.6395 L144.3605,13.6395 Z M156.6,7 C156.6,10.0926 154.0926,12.6 151,12.6 C150.2867,12.6 149.607,12.4614 148.9791,12.2185 L147.5532,13.0886 C148.5717,13.6661 149.7456,14 151,14 C154.8661,14 158,10.8661 158,7 C158,5.7463 157.6661,4.5717 157.0886,3.5532 L156.2185,4.9791 C156.4614,5.607 156.6,6.2867 156.6,7 L156.6,7 L156.6,7 L156.6,7 Z" id="Page-1-Copy-5-Copy-2-Copy" fill="#B169FA" transform="translate(151.000000, 7.000000) rotate(180.000000) translate(-151.000000, -7.000000) "></path>
            <path d="M97.7815,9.0209 C97.5386,8.393 97.4,7.714 97.4,7 C97.4,3.9074 99.9074,1.4 103,1.4 C103.7133,1.4 104.393,1.5386 105.0209,1.7822 L106.4468,0.9121 C105.4283,0.3346 104.2544,8.8817842e-16 103,8.8817842e-16 C99.1339,8.8817842e-16 96,3.1346 96,7 C96,8.2544 96.3339,9.429 96.9114,10.4468 L97.7815,9.0209 L97.7815,9.0209 L97.7815,9.0209 L97.7815,9.0209 L97.7815,9.0209 Z M102.5051,6.5051 C102.7788,6.2314 103.2212,6.2314 103.4949,6.5051 C103.7686,6.7788 103.7686,7.2212 103.4949,7.4949 C103.2212,7.7686 102.7788,7.7686 102.5051,7.4949 C102.2314,7.2212 102.2314,6.7788 102.5051,6.5051 L102.5051,6.5051 L102.5051,6.5051 L102.5051,6.5051 L102.5051,6.5051 L102.5051,6.5051 Z M96.3605,13.6395 L104.4854,8.4854 L109.6395,0.3605 L101.5153,5.5153 L96.3605,13.6395 L96.3605,13.6395 L96.3605,13.6395 L96.3605,13.6395 L96.3605,13.6395 Z M108.6,7 C108.6,10.0926 106.0926,12.6 103,12.6 C102.2867,12.6 101.607,12.4614 100.9791,12.2185 L99.5532,13.0886 C100.5717,13.6661 101.7456,14 103,14 C106.8661,14 110,10.8661 110,7 C110,5.7463 109.6661,4.5717 109.0886,3.5532 L108.2185,4.9791 C108.4614,5.607 108.6,6.2867 108.6,7 L108.6,7 L108.6,7 L108.6,7 Z" id="Page-1-Copy-5-Copy-3" fill="#BDBDBE" transform="translate(103.000000, 7.000000) rotate(180.000000) translate(-103.000000, -7.000000) "></path>
            <path d="M121.7815,9.0209 C121.5386,8.393 121.4,7.714 121.4,7 C121.4,3.9074 123.9074,1.4 127,1.4 C127.7133,1.4 128.393,1.5386 129.0209,1.7822 L130.4468,0.9121 C129.4283,0.3346 128.2544,-2.66453526e-15 127,-2.66453526e-15 C123.1339,-2.66453526e-15 120,3.1346 120,7 C120,8.2544 120.3339,9.429 120.9114,10.4468 L121.7815,9.0209 L121.7815,9.0209 L121.7815,9.0209 L121.7815,9.0209 L121.7815,9.0209 Z M126.5051,6.5051 C126.7788,6.2314 127.2212,6.2314 127.4949,6.5051 C127.7686,6.7788 127.7686,7.2212 127.4949,7.4949 C127.2212,7.7686 126.7788,7.7686 126.5051,7.4949 C126.2314,7.2212 126.2314,6.7788 126.5051,6.5051 L126.5051,6.5051 L126.5051,6.5051 L126.5051,6.5051 L126.5051,6.5051 L126.5051,6.5051 Z M120.3605,13.6395 L128.4854,8.4854 L133.6395,0.3605 L125.5153,5.5153 L120.3605,13.6395 L120.3605,13.6395 L120.3605,13.6395 L120.3605,13.6395 L120.3605,13.6395 Z M132.6,7 C132.6,10.0926 130.0926,12.6 127,12.6 C126.2867,12.6 125.607,12.4614 124.9791,12.2185 L123.5532,13.0886 C124.5717,13.6661 125.7456,14 127,14 C130.8661,14 134,10.8661 134,7 C134,5.7463 133.6661,4.5717 133.0886,3.5532 L132.2185,4.9791 C132.4614,5.607 132.6,6.2867 132.6,7 L132.6,7 L132.6,7 L132.6,7 Z" id="Page-1-Copy-5-Copy-4" fill="#F6BD06" transform="translate(127.000000, 7.000000) rotate(180.000000) translate(-127.000000, -7.000000) "></path>
            <path d="M12,48 C5.372583,48 0,42.627417 0,36 C0,29.372583 5.372583,24 12,24 C18.627417,24 24,29.372583 24,36 C24,42.627417 18.627417,48 12,48 L12,48 L12,48 L12,48 L12,48 L12,48 Z M12,26 C6.4771525,26 2,30.4771525 2,36 C2,41.5228475 6.4771525,46 12,46 C17.5228475,46 22,41.5228475 22,36 C22,33.3478351 20.9464316,30.804296 19.0710678,28.9289322 C17.195704,27.0535684 14.6521649,26 12,26 L12,26 L12,26 L12,26 L12,26 L12,26 Z M12,42 C11.4504509,41.9961531 11.0069865,41.5495626 11.007,41 L11.007,35.01 C10.9955048,34.6479012 11.1821199,34.3082784 11.4939309,34.1238291 C11.8057419,33.9393797 12.1932581,33.9393797 12.5050691,34.1238291 C12.8168801,34.3082784 13.0034952,34.6479012 12.992,35.01 L12.992,41 C12.993596,41.264317 12.8898509,41.5183849 12.7036993,41.7060377 C12.5175477,41.8936906 12.2643213,41.999473 12,42 L12,42 L12,42 L12,42 L12,42 L12,42 Z M12,32 C11.5986827,32.0004045 11.2366567,31.7589682 11.0827988,31.3883154 C10.9289409,31.0176626 11.0135652,30.5908218 11.2971964,30.3069044 C11.5808276,30.022987 12.0075829,29.9379322 12.3783906,30.0914162 C12.7491984,30.2449002 12.9909998,30.6066825 12.991,31.008 C12.9899018,31.5550209 12.5470195,31.9983501 12,32 L12,32 L12,32 L12,32 L12,32 L12,32 Z M12.992,31 L12.992,31.01 C12.991903,31.0083347 12.991903,31.0066653 12.992,31.005 C12.992097,31.0033347 12.992,31 12.992,31 L12.992,31 L12.992,31 L12.992,31 L12.992,31 L12.992,31 Z" id="Shape" fill="#E2003B" transform="translate(12.000000, 36.000000) scale(1, -1) translate(-12.000000, -36.000000) "></path>
            <path d="M79.5,43 C75.3578644,43 72,39.6421356 72,35.5 C72,31.3578644 75.3578644,28 79.5,28 C83.6421356,28 87,31.3578644 87,35.5 C87,39.6421356 83.6421356,43 79.5,43 L79.5,43 L79.5,43 L79.5,43 L79.5,43 L79.5,43 Z M79.5,29.25 C76.0482203,29.25 73.25,32.0482203 73.25,35.5 C73.25,38.9517797 76.0482203,41.75 79.5,41.75 C82.9517797,41.75 85.75,38.9517797 85.75,35.5 C85.75,33.8423969 85.0915198,32.252685 83.9194174,31.0805826 C82.747315,29.9084803 81.1576031,29.25 79.5,29.25 L79.5,29.25 L79.5,29.25 L79.5,29.25 L79.5,29.25 L79.5,29.25 Z M79.5,39.25 C79.1565318,39.2475957 78.8793666,38.9684766 78.879375,38.625 L78.879375,34.88125 C78.8721905,34.6549383 78.9888249,34.442674 79.1837068,34.3273932 C79.3785887,34.2121123 79.6207863,34.2121123 79.8156682,34.3273932 C80.0105501,34.442674 80.1271845,34.6549383 80.12,34.88125 L80.12,38.625 C80.1209975,38.7901981 80.0561568,38.9489906 79.9398121,39.0662736 C79.8234673,39.1835566 79.6652008,39.2496706 79.5,39.25 L79.5,39.25 L79.5,39.25 L79.5,39.25 L79.5,39.25 L79.5,39.25 Z M79.5,33 C79.2491767,33.0002528 79.0229104,32.8493551 78.9267493,32.6176971 C78.8305881,32.3860391 78.8834782,32.1192636 79.0607478,31.9418152 C79.2380172,31.7643669 79.5047393,31.7112076 79.7364941,31.8071351 C79.968249,31.9030626 80.1193749,32.1291766 80.119375,32.38 C80.1186886,32.7218881 79.8418872,32.9989688 79.5,33 L79.5,33 L79.5,33 L79.5,33 L79.5,33 L79.5,33 Z M80.12,32.375 L80.12,32.38125 C80.1199394,32.3802092 80.1199394,32.3791658 80.12,32.378125 C80.1200606,32.3770842 80.12,32.375 80.12,32.375 L80.12,32.375 L80.12,32.375 L80.12,32.375 L80.12,32.375 L80.12,32.375 Z" id="Shape-Copy" fill="#E2003B" transform="translate(79.500000, 35.500000) scale(1, -1) translate(-79.500000, -35.500000) "></path>
            <path d="M57.86,35.9934698 C57.2,35.9184698 56.615,36.3984698 56.54,37.0584698 C56.3,39.2484698 55.34,41.2284698 53.78,42.7734698 C51.98,44.5884698 49.565,45.5934698 47,45.5934698 C44.435,45.5934698 42.02,44.5884698 40.205,42.7884698 C36.455,39.0384698 36.455,32.9484698 40.205,29.2134698 C43.13,26.3034698 47.57,25.5684698 51.26,27.3984698 C51.86,27.6984698 52.58,27.4434698 52.865,26.8584698 C53.165,26.2584698 52.91,25.5384698 52.325,25.2534698 C47.705,22.9584698 42.155,23.8734698 38.51,27.5184698 C33.83,32.1984698 33.83,39.8034698 38.51,44.4834698 C40.775,46.7484698 43.79,47.9934698 47,47.9934698 C50.21,47.9934698 53.225,46.7484698 55.49,44.4834698 C57.41,42.5634698 58.625,40.0284698 58.925,37.3284698 C59,36.6684698 58.52,36.0684698 57.86,35.9934698 L57.86,35.9934698 L57.86,35.9934698 L57.86,35.9934698 L57.86,35.9934698 L57.86,35.9934698 Z" id="Shape" fill="#10C953"></path>
            <path d="M44.04375,33.74875 C43.57875,33.28375 42.81375,33.28375 42.34875,33.74875 C41.88375,34.21375 41.88375,34.97875 42.34875,35.44375 L46.54875,39.64375 C46.78875,39.88375 47.08875,39.98875 47.40375,39.98875 C47.71875,39.98875 48.01875,39.86875 48.25875,39.64375 L57.85875,30.04375 C58.32375,29.57875 58.32375,28.81375 57.85875,28.34875 C57.39375,27.88375 56.62875,27.88375 56.16375,28.34875 L47.38875,37.10875 L44.04375,33.74875 L44.04375,33.74875 L44.04375,33.74875 L44.04375,33.74875 L44.04375,33.74875 L44.04375,33.74875 Z" id="Shape" fill="#10C953"></path>
            <path d="M105.427569,31.8869796 C105.427569,31.6612411 105.277077,31.5107488 105.126585,31.4355027 L97.7524615,28.0494258 C97.6019692,27.9741796 97.3762308,27.9741796 97.2257385,28.1246719 C97.0752462,28.1999181 97,28.4256565 97,28.5761488 L97,36.2512565 L97,36.2512565 L97,42.1204566 C97,42.4214412 97.2257385,42.7224258 97.6019692,42.7224258 C97.9029538,42.7224258 98.2039385,42.4966873 98.2039385,42.1204566 L98.2039385,36.5522412 L105.277077,32.4137027 C105.352323,32.2632104 105.427569,32.0374719 105.427569,31.8869796 L105.427569,31.8869796 Z M98.0534462,35.1978104 L98.0534462,29.4038565 L103.621662,31.9622258 L98.0534462,35.1978104 L98.0534462,35.1978104 Z" id="Shape-Copy" fill="#E2003B"></path>
        </g>
    </g>
</svg>