<?xml version="1.0" encoding="UTF-8" standalone="no"?>
<svg width="28px" height="28px" viewBox="0 0 28 28" version="1.1" xmlns="http://www.w3.org/2000/svg" xmlns:xlink="http://www.w3.org/1999/xlink">
    <!-- Generator: Sketch 39.1 (31720) - http://www.bohemiancoding.com/sketch -->
    <title>Shape</title>
    <desc>Created with Sketch.</desc>
    <defs></defs>
    <g id="Page-1" stroke="none" stroke-width="1" fill="none" fill-rule="evenodd">
        <g id="tubiao" transform="translate(-1028.000000, -124.000000)" fill="#BEC3CA">
            <path d="M1042.0013,124 C1034.26984,124 1028.00261,130.259368 1028.00261,137.980506 C1028.00261,145.701831 1034.26984,151.960938 1042.0013,151.960938 C1049.73277,151.960938 1056,145.701831 1056,137.980506 C1056,130.259405 1049.73277,124 1042.0013,124 L1042.0013,124 Z M1042.0013,148.232837 C1036.33196,148.232837 1031.73557,143.642727 1031.73557,137.980506 C1031.73557,132.318472 1036.33196,127.7281 1042.0013,127.7281 C1047.67064,127.7281 1052.267,132.318472 1052.267,137.980506 C1052.267,143.642727 1047.67064,148.232837 1042.0013,148.232837 L1042.0013,148.232837 Z M1041.69023,138.291175 L1036.7129,138.291175 L1036.7129,140.7766 L1044.1789,140.7766 L1044.1789,131.456275 L1041.69023,131.456275 L1041.69023,138.291175 L1041.69023,138.291175 Z" id="Shape"></path>
        </g>
    </g>
</svg>